<?xml version="1.0" standalone="no"?>
<!DOCTYPE svg PUBLIC "-//W3C//DTD SVG 1.1//EN" "http://www.w3.org/Graphics/SVG/1.1/DTD/svg11.dtd" >
<svg>
<metadata>
Created by FontForge 20090914 at Wed Aug 24 07:36:09 2022
 By www-data
Copyright (c) 2018 by Vladimir Nikolic. All rights reserved.
</metadata>
<defs>
<font id="Technology-Bold" horiz-adv-x="447" >
  <font-face 
    font-family="Technology"
    font-weight="700"
    font-stretch="normal"
    units-per-em="1000"
    panose-1="0 0 0 0 0 0 0 0 0 0"
    ascent="750"
    descent="-250"
    x-height="683.999"
    cap-height="687"
    bbox="-113.668 -105.997 464 795.999"
    underline-thickness="50"
    underline-position="-50"
    unicode-range="U+000D-U+007A"
  />
<missing-glyph 
 />
    <glyph glyph-name=".notdef" 
 />
    <glyph glyph-name="NULL" horiz-adv-x="0" 
 />
    <glyph glyph-name="NULL" horiz-adv-x="0" 
 />
    <glyph glyph-name="nonmarkingreturn" unicode="&#xd;" 
 />
    <glyph glyph-name="space" unicode=" " horiz-adv-x="356" 
 />
    <glyph glyph-name="exclam" unicode="!" horiz-adv-x="153" 
d="M119 373c0 -2 -0.666992 -3.66699 -2 -5l-17 -18c-3.33301 -3.33301 -6.66602 -3.33301 -9.99902 0l-55 54c-1.33301 1.33301 -2 3 -2 5v219c0 2 0.666992 3.66699 2 5l55 55c3.33301 3.33301 6.66602 3.33301 9.99902 0l17 -18c1.33301 -1.33301 2 -3 2 -5v-292zM119 7
c0 -4.66699 -2 -7 -6 -7h-73c-4.66699 -0 -7 2.33301 -7 7v72c0 4.66699 2.33301 7 7 7h73c4 0 6 -2.33301 6 -7v-72zM119 125c-0.666992 -0.666992 -1 -1.33301 -1 -2l-1 -2l-17 -19c-3.33301 -3.33301 -6.66602 -3.33301 -9.99902 0l-55 55c-1.33301 1.33301 -2 3 -2 5
v119c0 2 0.666992 3.66699 2 5l55 55c3.33301 3.33301 6.66602 3.33301 9.99902 0l17 -18c1.33301 -1.33301 2 -3 2 -5v-193z" />
    <glyph glyph-name="quotedbl" unicode="&#x22;" horiz-adv-x="259" 
d="M113 551c0 -2 -0.667969 -3.66699 -2.00098 -5l-36 -37c-3.33301 -3.33301 -6.66602 -3.33301 -9.99902 0l-37 37c-1.33301 1.33301 -2 3 -2 5v123c0 4 2.33301 6 7 6h73c4.66699 0 7 -2 7 -6v-123zM224.999 550c0 -2 -0.667969 -3.66797 -2.00098 -5.00098l-36 -37
c-3.33301 -3.33301 -6.66602 -3.33301 -9.99902 0l-38 37c-0.666992 0.666992 -1 2.33398 -1 5.00098v123c0 4 2 6 6 6h74c4.66699 0 7 -2 7 -6v-123z" />
    <glyph glyph-name="dollar" unicode="$" 
d="M412 62c0 -2 -0.666992 -3.66699 -2 -5l-19 -18c-3.33301 -3.33301 -6.33301 -3.33301 -9 0l-55 55c-1.33301 1.33301 -2 3 -2 5v182c0 2 0.666992 3.66699 2 5l55 55c2.66699 2.66699 5.66699 2.66699 9 0l19 -18c1.33301 -1.33301 2 -3 2 -5v-256zM261 -73
c0 -1.33301 -0.666992 -2.66699 -2 -4l-18 -19c-3.33301 -3.33301 -6.33301 -3.33301 -9 0l-55 55c-1.33301 1.33301 -2 3 -2 5v19c0 4.66699 2.33301 7 7 7h72c4.66699 0 7 -2.33301 7 -7v-56zM355 1.99902c-1.33301 -1.33301 -3 -2.00098 -5 -2.00098h-311
c-3.33301 0 -5.5 1.33301 -6.5 4s-0.166992 5.33398 2.5 8.00098l72 73c1.33301 1.33301 3 2 5 2h202c2 0 3.66699 -0.666992 5 -2l55 -55c2.66699 -3.33301 2.66699 -6.33301 0 -9zM365 349.998c3.33301 -3.33301 3.33301 -6.66602 0 -9.99902l-37 -36
c-1.33301 -1.33301 -3 -2 -5 -2h-201c-2 0 -3.66699 0.666992 -5 2l-37 36c-3.33301 3.33301 -3.33301 6.66602 0 9.99902l37 36c1.33301 1.33301 3 2 5 2h204zM261 103.998c0 -4.66699 -2.33301 -7 -7 -7h-72c-4.66699 0 -7 2.33301 -7 7v181c0 4.66699 2.33301 7 7 7h72
c4.66699 0 7 -2.33301 7 -7v-181zM261 706.998c0 -4.66699 -2.33301 -7 -7 -7h-72c-4.66699 0 -7 2.33301 -7 7v22c0 2 0.666992 3.66699 2 5l55 55c2.66699 2.66699 5.66699 2.66699 9 0l18 -17c1.33301 -1.33301 2 -3 2 -5v-60zM131 602.998
c-2 0 -3.66504 0.668945 -4.99805 2.00195l-55 55c-3.33301 3.33301 -3.33301 6.66602 0 9.99902l18 18c1.33301 1.33301 3 2 5 2h311c3.33301 0 5.66602 -1.33301 6.99902 -4s0.666016 -5.33398 -2.00098 -8.00098l-73 -73c-1.33301 -1.33301 -3 -2 -5 -2h-201z
M120.002 409c0 -2 -0.666992 -3.66699 -2 -5l-55 -54c-3.33301 -3.33301 -6.66602 -3.33301 -9.99902 0l-18 18c-1.33301 1.33301 -2 3 -2 5v255c0 2 0.666992 3.66699 2 5l18 19c3.33301 3.33301 6.66602 3.33301 9.99902 0l55 -55c1.33301 -1.33301 2 -3 2 -5v-183z
M261.002 406c0 -4.66699 -2.33301 -7 -7 -7h-72c-4.66699 0 -7 2.33301 -7 7v180c0 4.66699 2.33301 7 7 7h72c4.66699 0 7 -2.33301 7 -7v-180z" />
    <glyph glyph-name="parenleft" unicode="(" horiz-adv-x="150" 
d="M189 708l-58.998 0.00195312c-2 0 -3.66699 0.666992 -5 2l-55 55c-3.33301 3.33301 -3.33301 6.66602 0 9.99902l19 17c1.33301 1.33301 3 2 5 2h165c3.33301 0 5.66602 -1.33301 6.99902 -4s0.666016 -5.33398 -2.00098 -8.00098zM61.002 349.002
c-3.33301 -3.33301 -6.66602 -3.33301 -9.99902 0l-17 18c-1.33301 1.33301 -2 3 -2 5v360c0 2 0.666992 3.66699 2 5l17 19c3.33301 3.33301 6.66602 3.33301 9.99902 0l55 -55c1.33301 -1.33301 2 -3 2 -5v-287c0 -2 -0.666992 -3.66699 -2 -5zM264.002 -93.998
c2.66699 -2.66699 3.33203 -5.33203 1.99902 -7.99902s-3.66602 -4 -6.99902 -4h-165c-2 0 -3.66699 0.666992 -5 2l-19 18c-3.33301 3.33301 -3.33301 6.66602 0 9.99902l55 54c1.33301 1.33301 3 2 5 2h56c2 0 3.66699 -0.666992 5 -2zM61 -67.9961
c-3.33301 -3.33301 -6.66602 -3.33301 -9.99902 0l-17 19c-1.33301 1.33301 -2 3 -2 5v362c0 2 0.666992 3.66699 2 5l17 17c3.33301 3.33301 6.66602 3.33301 9.99902 0l55 -55c1.33301 -1.33301 2 -3 2 -5v-288c0 -2 -0.666992 -3.66699 -2 -5z" />
    <glyph glyph-name="parenright" unicode=")" horiz-adv-x="160" 
d="M-35 -18l58.999 -0.000976562c1.33301 0 2.66602 -0.666992 3.99902 -2l55 -55c3.33301 -2.66699 3.33301 -5.66699 0 -9l-18 -18c-1.33301 -1.33301 -3 -2 -5 -2h-166c-3.33301 0 -5.66602 1.33301 -6.99902 4s-0.666016 5.33398 2.00098 8.00098zM91.999 340.999
c3.33301 3.33301 6.66602 3.33301 9.99902 0l18 -17c1.33301 -1.33301 2 -3 2 -5v-361c0 -2 -0.666992 -3.66699 -2 -5l-18 -19c-3.33301 -3.33301 -6.66602 -3.33301 -9.99902 0l-55 55c-1.33301 1.33301 -2 3 -2 5v287c0 2 0.666992 3.66699 2 5zM-111.001 783.999
c-2.66699 2.66699 -3.33301 5.33301 -2 8s3.66602 4 6.99902 4h166c2 0 3.66699 -0.666992 5 -2l18 -18c3.33301 -2.66699 3.33301 -5.66699 0 -9l-55 -55c-1.33301 -1.33301 -2.66602 -2 -3.99902 -2h-56c-2 0 -3.66699 0.666992 -5 2zM92 757.998
c3.33301 3.33301 6.66602 3.33301 9.99902 0l18 -19c1.33301 -1.33301 2 -3 2 -5v-361c0 -2 -0.666992 -3.66699 -2 -5l-18 -18c-3.33301 -3.33301 -6.66602 -3.33301 -9.99902 0l-55 55c-1.33301 1.33301 -2 3 -2 5v288c0 2 0.666992 3.66699 2 5z" />
    <glyph glyph-name="comma" unicode="," horiz-adv-x="158" 
d="M120 -46c0 -2 -0.667969 -3.66699 -2.00098 -5l-36 -37c-3.33301 -3.33301 -6.66602 -3.33301 -9.99902 0l-37 37c-1.33301 1.33301 -2 3 -2 5v122c0 4.66699 2.33301 7 7 7h73c4.66699 0 7 -2.33301 7 -7v-122z" />
    <glyph glyph-name="hyphen" unicode="-" horiz-adv-x="267" 
d="M247 344c3.33301 -3.33301 3.33301 -6.66602 0 -9.99902l-36 -36c-1.33301 -1.33301 -3 -2 -5 -2h-145c-2 0 -3.66699 0.666992 -5 2l-36 36c-3.33301 3.33301 -3.33301 6.66602 0 9.99902l36 36c1.33301 1.33301 3 2 5 2h145c2 0 3.66699 -0.666992 5 -2z" />
    <glyph glyph-name="period" unicode="." horiz-adv-x="158" 
d="M110 85c4 0 6 -2.33301 6 -7v-71c0 -4.66699 -2 -7 -6 -7h-73c-4.66699 -0 -7 2.33301 -7 7v71c0 4.66699 2.33301 7 7 7h73z" />
    <glyph glyph-name="zero" unicode="0" 
d="M391 39c-3.33301 -3.33301 -6.33301 -3.33301 -9 0l-55 54c-1.33301 1.33301 -2 3 -2 5v183c0 2 0.666992 3.66699 2 5l55 55c2.66699 2.66699 5.66699 2.66699 9 0l19 -18c1.33301 -1.33301 2 -3 2 -5v-256c0 -2 -0.666992 -3.66699 -2 -5zM391 349
c-3.33301 -3.33301 -6.33301 -3.33301 -9 0l-55 55c-1.33301 1.33301 -2 3 -2 5v183c0 2 0.666992 3.66699 2 5l55 54c2.66699 2.66699 5.66699 2.66699 9 0l19 -18c1.33301 -1.33301 2 -3 2 -5v-255c0 -2 -0.666992 -3.66699 -2 -5zM319 605c-1.33301 -1.33301 -3 -2 -5 -2
h-183c-2 0 -3.66699 0.666992 -5 2l-55 55c-3.33301 3.33301 -3.33301 6.66602 0 9.99902l18 18c1.33301 1.33301 3 2 5 2h256c2 0 3.66699 -0.666992 5 -2l18 -18c3.33301 -3.33301 3.33301 -6.66602 0 -9.99902zM63 349c-3.33301 -3.33301 -6.66602 -3.33301 -9.99902 0
l-18 19c-1.33301 1.33301 -2 3 -2 5v255c0 2 0.666992 3.66699 2 5l18 18c3.33301 3.33301 6.66602 3.33301 9.99902 0l55 -54c1.33301 -1.33301 2 -3 2 -5v-183c0 -2 -0.666992 -3.66699 -2 -5zM63 39c-3.33301 -3.33301 -6.66602 -3.33301 -9.99902 0l-18 18
c-1.33301 1.33301 -2 3 -2 5v256c0 2 0.666992 3.66699 2 5l18 18c3.33301 3.33301 6.66602 3.33301 9.99902 0l55 -55c1.33301 -1.33301 2 -3 2 -5v-183c0 -2 -0.666992 -3.66699 -2 -5zM355 2c-1.33301 -1.33301 -3 -2 -5 -2h-256c-2 0 -3.66699 0.666992 -5 2l-18 19
c-3.33301 2.66699 -3.33301 5.66699 0 9l55 55c1.33301 1.33301 3 2 5 2h183c2 0 3.66699 -0.666992 5 -2l54 -55c2.66699 -3.33301 2.66699 -6.33301 0 -9z" />
    <glyph glyph-name="one" unicode="1" horiz-adv-x="145" 
d="M94 349c-3.33301 -3.33301 -6.66602 -3.33301 -9.99902 0l-55 55c-1.33301 1.33301 -2 3 -2 5v218c0 2 0.666992 3.66699 2 5l55 55c3.33301 3.33301 6.66602 3.33301 9.99902 0l18 -18c1.33301 -1.33301 2 -3 2 -5v-292c0 -2 -0.666992 -3.66699 -2 -5zM94 2
c-3.33301 -3.33301 -6.66602 -3.33301 -9.99902 0l-55 55c-1.33301 1.33301 -2 3 -2 5v218c0 2 0.666992 3.66699 2 5l55 55c3.33301 3.33301 6.66602 3.33301 9.99902 0l18 -18c1.33301 -1.33301 2 -3 2 -5v-292c0 -2 -0.666992 -3.66699 -2 -5z" />
    <glyph glyph-name="two" unicode="2" 
d="M411 372c0 -2 -0.666992 -3.66699 -2 -5l-19 -18c-3.33301 -3.33301 -6.33301 -3.33301 -9 0l-55 54c-1.33301 1.33301 -2 3 -2 5v183c0 2 0.666992 3.66699 2 5l55 55c2.66699 2.66699 5.66699 2.66699 9 0l19 -19c1.33301 -1.33301 2 -3 2 -5v-255zM318 604
c-1.33301 -1.33301 -3 -2.00195 -5 -2.00195h-201c-2 0 -3.66699 0.666992 -5 2l-73 73c-2.66699 2.66699 -3.5 5.33398 -2.5 8.00098s3.16699 4 6.5 4h311c2 0 3.66699 -0.666992 5 -2l19 -18c3.33301 -3.33301 3.33301 -6.66602 0 -9.99902zM119 97.998
c0 -2 -0.666992 -3.66699 -2 -5l-55 -55c-3.33301 -3.33301 -6.66602 -3.33301 -9.99902 0l-18 18c-1.33301 1.33301 -2 3 -2 5v256c0 2 0.666992 3.66699 2 5l18 18c3.33301 3.33301 6.66602 3.33301 9.99902 0l55 -55c1.33301 -1.33301 2 -3 2 -5v-182zM93 -0.00195312
c-2 0 -3.66895 0.667969 -5.00195 2.00098l-18 18c-3.33301 2.66699 -3.33301 5.66699 0 9l55 55c1.33301 1.33301 3 2 5 2h202c2.66699 0 4 -0.666992 4 -2l73 -72c2.66699 -2.66699 3.33398 -5.33398 2.00098 -8.00098s-3.66602 -4 -6.99902 -4h-311zM326.998 302.999
c-1.33301 -1.33301 -3 -2 -5 -2h-201c-2 0 -3.66699 0.666992 -5 2l-37 36c-3.33301 3.33301 -3.33301 6.66602 0 9.99902l37 37c1.33301 1.33301 3 2 5 2h201c2 0 3.66699 -0.666992 5 -2l37 -37c3.33301 -3.33301 3.33301 -6.66602 0 -9.99902z" />
    <glyph glyph-name="three" unicode="3" horiz-adv-x="412" 
d="M24 0c-3.33301 0 -5.50195 1.33301 -6.50195 4s-0.166992 5.33398 2.5 8.00098l75 74h185c2 0 3.66699 -0.666992 5 -2l73 -72c2.66699 -2.66699 3.33398 -5.33398 2.00098 -8.00098s-3.66602 -4 -6.99902 -4h-329zM377.998 25
c0 -3.33301 -1.16602 -5.66797 -3.49902 -7.00098s-4.83301 -0.666016 -7.5 2.00098l-74 73c-1.33301 1.33301 -2 3 -2 5v182c0 2 0.666992 3.66699 2 5l55 55c3.33301 3.33301 6.66602 3.33301 9.99902 0l18 -18c1.33301 -1.33301 2 -3 2 -5v-292zM330.999 348.998
c3.33301 -3.33301 3.33301 -6.66602 0 -9.99902l-36 -36c-1.33301 -1.33301 -3 -2 -5 -2h-202c-2 0 -3.66699 0.666992 -5 2l-36 36c-3.33301 3.33301 -3.33301 6.66602 0 9.99902l36 37c1.33301 1.33301 3 2 5 2h202c2 0 3.66699 -0.666992 5 -2zM377.999 371.998
c0 -2 -0.667969 -3.66895 -2.00098 -5.00195l-18 -18c-3.33301 -3.33301 -6.66602 -3.33301 -9.99902 0l-55 55c-1.33301 1.33301 -2 3 -2 5v182c0 2 0.666992 3.66699 2 5l74 73c2.66699 2.66699 5.16699 3.33398 7.5 2.00098s3.5 -3.66602 3.5 -6.99902v-292z
M284.998 604.996c-1.33301 -1.33301 -2.99805 -2 -4.99805 -2h-185l-75 74c-2.66699 2.66699 -3.5 5.33398 -2.5 8.00098s3.16699 4 6.5 4h329c3.33301 0 5.66602 -1.33301 6.99902 -4s0.666016 -5.33398 -2.00098 -8.00098z" />
    <glyph glyph-name="four" unicode="4" horiz-adv-x="436" 
d="M403 7c0 -3.33301 -1.33203 -5.66797 -3.99902 -7.00098s-5.33398 -0.666016 -8.00098 2.00098l-73 73c-1.33301 1.33301 -2 3 -2 5v201c0 2 0.666992 3.66699 2 5l55 55c3.33301 3.33301 6.33301 3.33301 9 0l19 -18c1.33301 -1.33301 2 -3 2 -5v-311zM403.001 372.998
c0 -2 -0.667969 -3.66895 -2.00098 -5.00195l-19 -19c-2.66699 -3.33301 -5.66699 -3.33301 -9 0l-55 55c-1.33301 1.33301 -2 3 -2 5v201c0 2 0.666992 3.66699 2 5l73 73c2.66699 2.66699 5.33398 3.33398 8.00098 2.00098s4 -3.66602 4 -6.99902v-310zM111 408.996
c0 -2 -0.667969 -3.66504 -2.00098 -4.99805l-55 -55c-3.33301 -3.33301 -6.66602 -3.33301 -9.99902 0l-18 19c-1.33301 1.33301 -2 3 -2 5v310c0 3.33301 1.33301 5.66602 4 6.99902s5 0.666016 7 -2.00098l74 -73c1.33301 -1.33301 2 -3 2 -5v-201zM318.999 303.998
c-1.33301 -1.33301 -3 -2 -5 -2h-202c-2 0 -3.66699 0.666992 -5 2l-36 36c-3.33301 3.33301 -3.33301 6.66602 0 9.99902l36 36c1.33301 1.33301 3 2 5 2h202c2 0 3.66699 -0.666992 5 -2l36 -36c3.33301 -3.33301 3.33301 -6.66602 0 -9.99902z" />
    <glyph glyph-name="five" unicode="5" 
d="M335 603l-203.998 0.00195312c-2 0 -3.66699 0.666992 -5 2l-55 55c-3.33301 3.33301 -3.33301 6.66602 0 9.99902l18 17c1.33301 1.33301 3 2 5 2h311c3.33301 0 5.66602 -1.33301 6.99902 -4s0.666016 -5.33398 -2.00098 -8.00098zM63.002 349.002
c-3.33301 -3.33301 -6.66602 -3.33301 -9.99902 0l-18 19c-1.33301 1.33301 -2 3 -2 5v255c0 2 0.666992 3.66699 2 5l18 18c3.33301 3.33301 6.66602 3.33301 9.99902 0l54 -55c1.33301 -1.33301 2 -3 2 -5v-182c0 -2 -0.666992 -3.66699 -2 -5zM328.002 303.002
c-1.33301 -1.33301 -3 -2 -5 -2h-202c-2 0 -3.66699 0.666992 -5 2l-36 37c-3.33301 3.33301 -3.33301 6.66602 0 9.99902l36 36c1.33301 1.33301 3 2 5 2h202c2 0 3.66699 -0.666992 5 -2l36 -36c3.33301 -3.33301 3.33301 -6.66602 0 -9.99902zM391.002 38.002
c-3.33301 -3.33301 -6.33301 -3.33301 -9 0l-55 55c-1.33301 1.33301 -2 3 -2 5v182c0 2 0.666992 3.66699 2 5l55 55c2.66699 2.66699 5.66699 2.66699 9 0l19 -17c1.33301 -1.33301 2 -3 2 -5v-256c0 -2 -0.666992 -3.66699 -2 -5zM355.002 2.00195
c-1.33301 -1.33301 -3 -2.00098 -5 -2.00098h-311c-3.33301 0 -5.5 1.33301 -6.5 4s-0.166992 5.33398 2.5 8.00098l72 72c1.33301 1.33301 3 2 5 2l20 1h181c2 0 3.66699 -0.666992 5 -2l55 -55c2.66699 -3.33301 2.66699 -6.33301 0 -9z" />
    <glyph glyph-name="six" unicode="6" 
d="M354 2c-1.33301 -1.33301 -3 -2 -5 -2h-255c-2 0 -3.66699 0.666992 -5 2l-18 18c-3.33301 2.66699 -3.33301 5.66699 0 9l55 55c1.33301 1.33301 3 2 5 2h182c2 0 3.66699 -0.666992 5 -2l55 -55c2.66699 -3.33301 2.66699 -6.33301 0 -9zM411 61
c0 -2 -0.666992 -3.66699 -2 -5l-18 -18c-3.33301 -3.33301 -6.33301 -3.33301 -9 0l-55 55c-1.33301 1.33301 -2 3 -2 5v182c0 2 0.666992 3.66699 2 5l55 55c2.66699 2.66699 5.66699 2.66699 9 0l18 -18c1.33301 -1.33301 2 -3 2 -5v-256zM337 604
c0 -1.33301 -1.33105 -1.99805 -3.99805 -1.99805h-202c-2 0 -3.66699 0.666992 -5 2l-55 55c-3.33301 3.33301 -3.33301 6.66602 0 9.99902l18 18c1.33301 1.33301 3 2 5 2h311c3.33301 0 5.66602 -1.33301 6.99902 -4s0.666016 -5.33398 -2.00098 -8.00098z
M364.002 349.002c3.33301 -3.33301 3.33301 -6.66602 0 -9.99902l-36 -36c-1.33301 -1.33301 -3 -2 -5 -2h-202c-2 0 -3.66699 0.666992 -5 2l-36 36c-3.33301 3.33301 -3.33301 6.66602 0 9.99902l36 37c1.33301 1.33301 3 2 5 2h202c2 0 3.66699 -0.666992 5 -2z
M119.002 98.002c0 -2 -0.666992 -3.66699 -2 -5l-55 -55c-3.33301 -3.33301 -6.66602 -3.33301 -9.99902 0l-17 18c-1.33301 1.33301 -2 3 -2 5v256c0 2 0.666992 3.66699 2 5l17 18c3.33301 3.33301 6.66602 3.33301 9.99902 0l55 -55c1.33301 -1.33301 2 -3 2 -5v-182z
M119.002 408.002c0 -2 -0.666992 -3.66699 -2 -5l-55 -54c-3.33301 -3.33301 -6.66602 -3.33301 -9.99902 0l-17 18c-1.33301 1.33301 -2 3 -2 5v255c0 2 0.666992 3.66699 2 5l17 19c3.33301 3.33301 6.66602 3.33301 9.99902 0l55 -55c1.33301 -1.33301 2 -3 2 -5v-183z
" />
    <glyph glyph-name="seven" unicode="7" horiz-adv-x="412" 
d="M375 7c0 -3.33301 -1.16602 -5.66797 -3.49902 -7.00098s-4.83301 -0.666016 -7.5 2.00098l-74 73c-1.33301 0 -2 1.33301 -2 4v201c0 2 0.666992 3.66699 2 5l55 55c3.33301 3.33301 6.66602 3.33301 9.99902 0l18 -18c1.33301 -1.33301 2 -3 2 -5v-310z
M375.001 371.998c0 -2 -0.667969 -3.66895 -2.00098 -5.00195l-18 -18c-3.33301 -3.33301 -6.66602 -3.33301 -9.99902 0l-55 55c-1.33301 1.33301 -2 3 -2 5v182c0 2 0.666992 3.66699 2 5l74 73c2.66699 2.66699 5.16699 3.33398 7.5 2.00098s3.5 -3.66602 3.5 -6.99902
v-292zM282 604.996c-1.33301 -1.33301 -2.99609 -2 -4.99609 -2h-183c-2 0 -3.66699 0.666992 -5 2l-72 72c-2.66699 2.66699 -3.33398 5.33398 -2.00098 8.00098s3.66602 4 6.99902 4h328c3.33301 0 5.66602 -1.33301 6.99902 -4s0.666016 -5.33398 -2.00098 -8.00098z" />
    <glyph glyph-name="eight" unicode="8" 
d="M355 2c-1.33301 -1.33301 -3 -2 -5 -2h-256c-2 0 -3.66699 0.666992 -5 2l-18 18c-3.33301 2.66699 -3.33301 5.66699 0 9l55 55c1.33301 1.33301 3 2 5 2h182c2 0 3.66699 -0.666992 5 -2l55 -55c2.66699 -3.33301 2.66699 -6.33301 0 -9zM411 62
c0 -2 -0.666992 -3.66699 -2 -5l-18 -19c-3.33301 -3.33301 -6.33301 -3.33301 -9 0l-55 55c-1.33301 1.33301 -2 3 -2 5v182c0 2 0.666992 3.66699 2 5l55 55c2.66699 2.66699 5.66699 2.66699 9 0l18 -18c1.33301 -1.33301 2 -3 2 -5v-255zM411 372
c0 -2 -0.666992 -3.66699 -2 -5l-18 -18c-3.33301 -3.33301 -6.33301 -3.33301 -9 0l-55 55c-1.33301 1.33301 -2 3 -2 5v182c0 2 0.666992 3.66699 2 5l55 55c2.66699 2.66699 5.66699 2.66699 9 0l18 -19c1.33301 -1.33301 2 -3 2 -5v-255zM318 605
c-1.33301 -1.33301 -3 -2 -5 -2h-182c-2 0 -3.66699 0.666992 -5 2l-55 54c-3.33301 3.33301 -3.33301 6.66602 0 9.99902l18 18c1.33301 1.33301 3 2 5 2h256c2 0 3.66699 -0.666992 5 -2l18 -18c3.33301 -3.33301 3.33301 -6.66602 0 -9.99902zM119 409
c0 -2 -0.666992 -3.66699 -2 -5l-55 -55c-3.33301 -3.33301 -6.66602 -3.33301 -9.99902 0l-17 18c-1.33301 1.33301 -2 3 -2 5v255c0 2 0.666992 3.66699 2 5l17 19c3.33301 3.33301 6.66602 3.33301 9.99902 0l55 -55c1.33301 -1.33301 2 -3 2 -5v-182zM364 349
c3.33301 -3.33301 3.33301 -6.66602 0 -9.99902l-36 -36c-1.33301 -1.33301 -3 -2 -5 -2h-202c-2 0 -3.66699 0.666992 -5 2l-36 36c-3.33301 3.33301 -3.33301 6.66602 0 9.99902l36 37c1.33301 1.33301 3 2 5 2h202c2 0 3.66699 -0.666992 5 -2zM119 98
c0 -2 -0.666992 -3.66699 -2 -5l-55 -55c-3.33301 -3.33301 -6.66602 -3.33301 -9.99902 0l-17 19c-1.33301 1.33301 -2 3 -2 5v255c0 2 0.666992 3.66699 2 5l17 18c3.33301 3.33301 6.66602 3.33301 9.99902 0l55 -55c1.33301 -1.33301 2 -3 2 -5v-182z" />
    <glyph glyph-name="nine" unicode="9" 
d="M411 373c0 -2 -0.666992 -3.66699 -2 -5l-19 -19c-3.33301 -3.33301 -6.33301 -3.33301 -9 0l-55 55c-1.33301 1.33301 -2 3 -2 5v182c0 2 0.666992 3.66699 2 5l55 55c2.66699 2.66699 5.66699 2.66699 9 0l19 -18c1.33301 -1.33301 2 -3 2 -5v-255zM318 605
c-1.33301 -1.33301 -3 -2 -5 -2h-183c-2 0 -3.66699 0.666992 -5 2l-55 55c-3.33301 3.33301 -3.33301 6.66602 0 9.99902l18 18c1.33301 1.33301 3 2 5 2h256c2 0 3.66699 -0.666992 5 -2l19 -18c3.33301 -3.33301 3.33301 -6.66602 0 -9.99902zM119 409
c0 -2 -0.666992 -3.66699 -2 -5l-55 -55c-3.33301 -3.33301 -6.66602 -3.33301 -9.99902 0l-18 19c-1.33301 1.33301 -2 3 -2 5v255c0 2 0.666992 3.66699 2 5l18 18c3.33301 3.33301 6.66602 3.33301 9.99902 0l55 -55c1.33301 -1.33301 2 -3 2 -5v-182zM364 350
c3.33301 -3.33301 3.33301 -6.66602 0 -9.99902l-37 -36c-1.33301 -1.33301 -3 -2 -5 -2h-201c-2 0 -3.66699 0.666992 -5 2l-37 36c-3.33301 3.33301 -3.33301 6.66602 0 9.99902l37 36c1.33301 1.33301 3 2 5 2h204zM354 2c-1.33301 -1.33301 -3 -2.00098 -5 -2.00098
h-311c-3.33301 0 -5.5 1.33301 -6.5 4s-0.166992 5.33398 2.5 8.00098l72 72c1.33301 1.33301 3 2 5 2l21 1h181c2 0 3.66699 -0.666992 5 -2l55 -55c2.66699 -3.33301 2.66699 -6.33301 0 -9zM411 61.999c0 -2 -0.666992 -3.66699 -2 -5l-19 -19
c-3.33301 -3.33301 -6.33301 -3.33301 -9 0l-55 55c-1.33301 1.33301 -2 3 -2 5v183c0 2 0.666992 3.66699 2 5l55 55c2.66699 2.66699 5.66699 2.66699 9 0l19 -18c1.33301 -1.33301 2 -3 2 -5v-256z" />
    <glyph glyph-name="colon" unicode=":" horiz-adv-x="160" 
d="M123 189c0 -4.66699 -2.33301 -7 -7 -7h-72c-4.66699 0 -7 2.33301 -7 7v73c0 4.66699 2.33301 7 7 7h72c4.66699 0 7 -2.33301 7 -7v-73zM123 468c0 -4.66699 -2.33301 -7 -7 -7h-72c-4.66699 0 -7 2.33301 -7 7v72c0 4.66699 2.33301 7 7 7h72
c4.66699 0 7 -2.33301 7 -7v-72z" />
    <glyph glyph-name="semicolon" unicode=";" horiz-adv-x="160" 
d="M123 468c0 -4.66699 -2.33301 -7 -7 -7h-72c-4.66699 0 -7 2.33301 -7 7v72c0 4.66699 2.33301 7 7 7h72c4.66699 0 7 -2.33301 7 -7v-72zM123 141c0 -2 -0.667969 -3.66699 -2.00098 -5l-36 -37c-3.33301 -3.33301 -6.66602 -3.33301 -9.99902 0l-37 37
c-1.33301 1.33301 -2 3 -2 5v123c0 4.66699 2.33301 7 7 7h73c4.66699 0 7 -2.33301 7 -7v-123z" />
    <glyph glyph-name="question" unicode="?" horiz-adv-x="414" 
d="M283 605c-1.33301 -1.33301 -3 -2.00195 -5 -2.00195h-180c-2 0 -3.66699 0.666992 -5 2l-72 72c-2.66699 2.66699 -3.5 5.33398 -2.5 8.00098s3.16699 4 6.5 4h290c2 0 3.66699 -0.666992 5 -2l18 -17c3.33301 -3.33301 3.33301 -6.66602 0 -9.99902zM376 371.998
c0 -2 -0.666992 -3.66699 -2 -5l-17 -18c-3.33301 -3.33301 -6.66602 -3.33301 -9.99902 0l-55 55c-1.33301 1.33301 -2 3 -2 5v182c0 2 0.666992 3.66699 2 5l55 55c3.33301 3.33301 6.66602 3.33301 9.99902 0l17 -19c1.33301 -1.33301 2 -3 2 -5v-255zM329 348.998
c3.33301 -3.33301 3.33301 -6.66602 0 -9.99902l-36 -36c-1.33301 -1.33301 -3 -2 -5 -2h-80c-2 0 -3.66699 0.666992 -5 2l-36 36c-3.33301 3.33301 -3.33301 6.66602 0 9.99902l36 37c1.33301 1.33301 3 2 5 2h80c2 0 3.66699 -0.666992 5 -2zM206 160.998
c0 -2 -0.666992 -3.66699 -2 -5l-55 -54c-3.33301 -3.33301 -6.66602 -3.33301 -9.99902 0l-17 18c-1.33301 1.33301 -2 3 -2 5v193c0 2 0.666992 3.66699 2 5l17 17c3.33301 3.33301 6.66602 3.33301 9.99902 0l55 -55c1.33301 -1.33301 2 -3 2 -5v-119zM206 6.99805
c0 -4.66699 -2.33301 -7 -7 -7h-73c-4 0 -6 2.33301 -6 7v71c0 4.66699 2 7 6 7h73c4.66699 0 7 -2.33301 7 -7v-71z" />
    <glyph glyph-name="A" unicode="A" 
d="M326 75c-1.33301 0 -1.99902 1.33105 -1.99902 3.99805v201c0 2 0.666992 3.66699 2 5l55 55c2.66699 2.66699 5.66699 2.66699 9 0l18 -18c1.33301 -1.33301 2 -3 2 -5v-310c0 -3.33301 -1.33301 -5.66602 -4 -6.99902s-5.33398 -0.666016 -8.00098 2.00098z
M410.001 371.998c0 -2 -0.667969 -3.66895 -2.00098 -5.00195l-18 -18c-3.33301 -3.33301 -6.33301 -3.33301 -9 0l-55 54c-1.33301 1.33301 -2 3 -2 5v183c0 2 0.666992 3.66699 2 5l72 73c2.66699 2.66699 5.33398 3.33398 8.00098 2.00098s4 -3.66602 4 -6.99902v-292z
M317 603.996c-1.33301 -1.33301 -2.99805 -2 -4.99805 -2h-182c-2 0 -3.66699 0.666992 -5 2l-74 73c-2.66699 2.66699 -3.33398 5.33398 -2.00098 8.00098s3.66602 4 6.99902 4h330c3.33301 0 5.5 -1.33301 6.5 -4s0.166992 -5.33398 -2.5 -8.00098zM118.002 407.996
c0 -2 -0.667969 -3.66504 -2.00098 -4.99805l-55 -54c-3.33301 -3.33301 -6.66602 -3.33301 -9.99902 0l-17 18c-1.33301 1.33301 -2 3 -2 5v292c0 3.33301 1.16699 5.66602 3.5 6.99902s4.83301 0.666016 7.5 -2.00098l73 -73c1.33301 -1.33301 2 -3 2 -5v-183z
M327.001 302.998c-1.33301 -1.33301 -3 -2 -5 -2h-202c-2 0 -3.66699 0.666992 -5 2l-36 36c-3.33301 3.33301 -3.33301 6.66602 0 9.99902l36 37c1.33301 1.33301 3 2 5 2h202c2 0 3.66699 -0.666992 5 -2l36 -37c3.33301 -3.33301 3.33301 -6.66602 0 -9.99902z
M43.001 1.99805c-2.66699 -2.66699 -5.16602 -3.33203 -7.49902 -1.99902s-3.5 3.66602 -3.5 6.99902v310c0 2 0.666992 3.66699 2 5l17 18c3.33301 3.33301 6.66602 3.33301 9.99902 0l55 -55c1.33301 -1.33301 2 -3 2 -5v-201c0 -2.66699 -0.666992 -4 -2 -4z" />
    <glyph glyph-name="B" unicode="B" 
d="M355 2c-1.33301 -1.33301 -3.00195 -2.00098 -5.00195 -2.00098h-292c-3.33301 0 -5.66602 1.33301 -6.99902 4s-0.666016 5.33398 2.00098 8.00098l73 72c1.33301 1.33301 3 2 5 2h183c2 0 3.66699 -0.666992 5 -2l54 -55c2.66699 -3.33301 2.66699 -6.33301 0 -9z
M390.998 37.999c-3.33301 -3.33301 -6.33301 -3.33301 -9 0l-55 55c-1.33301 1.33301 -2 3 -2 5v182c0 2 0.666992 3.66699 2 5l55 55c2.66699 2.66699 5.66699 2.66699 9 0l19 -18c1.33301 -1.33301 2 -3 2 -5v-256c0 -2 -0.666992 -3.66699 -2 -5zM390.998 348.999
c-3.33301 -3.33301 -6.33301 -3.33301 -9 0l-55 54c-1.33301 1.33301 -2 3 -2 5v183c0 2 0.666992 3.66699 2 5l55 55c2.66699 2.66699 5.66699 2.66699 9 0l19 -19c1.33301 -1.33301 2 -3 2 -5v-255c0 -2 -0.666992 -3.66699 -2 -5zM318.998 603.999
c-1.33301 -1.33301 -3 -2.00195 -5 -2.00195h-183c-2 0 -3.66699 0.666992 -5 2l-19 19c-9.33301 8 -18.5 16.833 -27.5 26.5l-26.5 27.5c-2 2.66699 -2.5 5.33398 -1.5 8.00098s3.16699 4 6.5 4h292c2 0 3.66699 -0.666992 5 -2l18 -18
c3.33301 -3.33301 3.33301 -6.66602 0 -9.99902zM62.998 348.997c-3.33301 -3.33301 -6.66699 -3.33105 -10 0.00195312l-18 18c-1.33301 1.33301 -2 3 -2 5v292c0 3.33301 1.16699 5.66602 3.5 6.99902s4.83301 0.666016 7.5 -2.00098l74 -73c1.33301 -1.33301 2 -3 2 -5
v-183c0 -2 -0.666992 -3.66699 -2 -5zM327.997 302.999c-1.33301 -1.33301 -3 -2 -5 -2h-201c-2 0 -3.66699 0.666992 -5 2l-37 36c-3.33301 3.33301 -3.33301 6.66602 0 9.99902l37 37c1.33301 1.33301 3 2 5 2h201c2 0 3.66699 -0.666992 5 -2l37 -37
c3.33301 -3.33301 3.33301 -6.66602 0 -9.99902zM43.9971 19.999c-2.66699 -2.66699 -5.16602 -3.33203 -7.49902 -1.99902s-3.5 3.66602 -3.5 6.99902v292c0 2 0.666992 3.66699 2 5l18 18c3.33301 3.33301 6.66602 3.33301 9.99902 0l55 -55c1.33301 -1.33301 2 -3 2 -5
v-182c0 -2 -0.666992 -3.66699 -2 -5z" />
    <glyph glyph-name="C" unicode="C" horiz-adv-x="405" 
d="M315 603l-184.998 0.00195312c-2 0 -3.66699 0.666992 -5 2l-55 55c-3.33301 3.33301 -3.33301 6.66602 0 9.99902l18 17c1.33301 1.33301 3 2 5 2h292c3.33301 0 5.66602 -1.33301 6.99902 -4s0.666016 -5.33398 -2.00098 -8.00098zM61.002 349.002
c-3.33301 -3.33301 -6.66602 -3.33496 -9.99902 -0.00195312l-18 18c-0.666992 0.666992 -1 2.33398 -1 5.00098v255c0 2.66699 0.333008 4.33398 1 5.00098l18 19c3.33301 3.33301 6.66602 3.33301 9.99902 0l55 -55c1.33301 -1.33301 2 -3 2 -5v-182
c0 -2 -0.666992 -3.66699 -2 -5zM390.002 12c2.66699 -2.66699 3.33203 -5.33301 1.99902 -8s-3.66602 -4 -6.99902 -4h-292c-2 0 -3.66699 0.666992 -5 2l-18 18c-3.33301 2.66699 -3.33301 5.66699 0 9l55 55c1.33301 1.33301 3 2 5 2h182c2 0 3.66699 -0.666992 5 -2z
M61 38.001c-3.33301 -3.33301 -6.66602 -3.33496 -9.99902 -0.00195312l-18 19c-0.666992 0.666992 -1 2.33398 -1 5.00098v256c0 2.66699 0.333008 4.33398 1 5.00098l18 17c3.33301 3.33301 6.66602 3.33301 9.99902 0l55 -55c1.33301 -1.33301 2 -3 2 -5v-182
c0 -2 -0.666992 -3.66699 -2 -5z" />
    <glyph glyph-name="D" unicode="D" 
d="M43 21c-2.66699 -2.66699 -5.16602 -3.5 -7.49902 -2.5s-3.5 3.16699 -3.5 6.5v293c0 2 0.666992 3.66699 2 5l18 17c3.33301 3.33301 6.66602 3.33301 9.99902 0l55 -55c1.33301 -1.33301 2 -3 2 -5v-182c0 -2 -0.666992 -3.66699 -2 -5zM354.001 2
c-1.33301 -1.33301 -3.00195 -2.00098 -5.00195 -2.00098h-292c-3.33301 0 -5.66602 1.33301 -6.99902 4s-0.666016 5.33398 2.00098 8.00098l73 72c1.33301 1.33301 3 2 5 2h183c2 0 3.66699 -0.666992 5 -2l54 -54c2.66699 -3.33301 2.66699 -6.33301 0 -9z
M389.999 37.999c-3.33301 -3.33301 -6.33301 -3.33301 -9 0l-55 55c-1.33301 1.33301 -2 3 -2 5v182c0 2 0.666992 3.66699 2 5l55 55c2.66699 2.66699 5.66699 2.66699 9 0l19 -17c1.33301 -1.33301 2 -3 2 -5v-256c0 -2 -0.666992 -3.66699 -2 -5zM389.999 348.999
c-3.33301 -3.33301 -6.33301 -3.33301 -9 0l-55 55c-1.33301 1.33301 -2 3 -2 5v182c0 2 0.666992 3.66699 2 5l55 55c2.66699 2.66699 5.66699 2.66699 9 0l19 -19c1.33301 -1.33301 2 -3 2 -5v-254c0 -2 -0.666992 -3.66699 -2 -5zM317.999 604.999
c-1.33301 -1.33301 -2.99805 -2.00195 -4.99805 -2.00195h-183c-2 0 -3.66699 0.666992 -5 2l-73 72c-2.66699 2.66699 -3.33398 5.33398 -2.00098 8.00098s3.66602 4 6.99902 4h292c2 0 3.66699 -0.666992 5 -2l18 -17c3.33301 -3.33301 3.33301 -6.66602 0 -9.99902z
M62.001 348.997c-3.33301 -3.33301 -6.66699 -3.33105 -10 0.00195312l-18 19c-1.33301 1.33301 -2 3 -2 5v292c0 3.33301 1.16699 5.66602 3.5 6.99902s4.83301 0.666016 7.5 -2.00098l74 -74c1.33301 -1.33301 2 -3 2 -5v-182c0 -2 -0.666992 -3.66699 -2 -5z" />
    <glyph glyph-name="E" unicode="E" horiz-adv-x="412" 
d="M318 605c-1.33301 -1.33301 -2.99609 -2 -4.99609 -2h-182c-2 0 -3.66699 0.666992 -5 2l-73 73c-2.66699 2.66699 -3.33398 5.33398 -2.00098 8.00098s3.66602 4 6.99902 4h328c3.33301 0 5.66602 -1.33301 6.99902 -4s0.666016 -5.33398 -2.00098 -8.00098z
M119.004 409c0 -2 -0.668945 -3.66504 -2.00195 -4.99805l-54 -55c-3.33301 -3.33301 -6.66602 -3.33301 -9.99902 0l-19 19c-1.33301 1.33301 -2 3 -2 5v292c0 3.33301 1.33301 5.66602 4 6.99902s5.33398 0.666016 8.00098 -2.00098l73 -73c1.33301 -1.33301 2 -3 2 -5
v-183zM364.002 350.002c3.33301 -3.33301 3.33301 -6.66602 0 -9.99902l-36 -36c-1.33301 -1.33301 -3 -2 -5 -2h-202c-2 0 -3.66699 0.666992 -5 2l-36 36c-3.33301 3.33301 -3.33301 6.66602 0 9.99902l36 36c1.33301 1.33301 3 2 5 2h202c2 0 3.66699 -0.666992 5 -2z
M119.002 96.002l-74.998 -75c-2.66699 -2.66699 -5.33398 -3.5 -8.00098 -2.5s-4 3.16699 -4 6.5v293c0 2 0.666992 3.66699 2 5l19 18c3.33301 3.33301 6.66602 3.33301 9.99902 0l54 -55c1.33301 -1.33301 2 -3 2 -5v-185zM58.0039 0.00195312
c-3.33301 0 -5.66992 1.33301 -7.00293 4s-0.666016 5.33398 2.00098 8.00098l73 73c1.33301 1.33301 3 2 5 2h182c2 0 3.66699 -0.666992 5 -2l73 -73c2.66699 -2.66699 3.33398 -5.33398 2.00098 -8.00098s-3.66602 -4 -6.99902 -4h-328z" />
    <glyph glyph-name="F" unicode="F" horiz-adv-x="404" 
d="M117 79c0 -2.66699 -0.666016 -3.99902 -1.99902 -3.99902l-73 -73c-2.66699 -2.66699 -5.16699 -3.33398 -7.5 -2.00098s-3.5 3.66602 -3.5 6.99902v310c0 2.66699 0.333008 4.33398 1 5.00098l19 18c3.33301 3.33301 6.66602 3.33301 9.99902 0l54 -55
c1.33301 -1.33301 2 -3 2 -5v-201zM326.001 303.001c-1.33301 -1.33301 -3 -2 -5 -2h-202c-2 0 -3.66699 0.666992 -5 2l-36 36c-3.33301 3.33301 -3.33301 6.66602 0 9.99902l36 37c1.33301 1.33301 3 2 5 2h202c2 0 3.66699 -0.666992 5 -2l36 -37
c3.33301 -3.33301 3.33301 -6.66602 0 -9.99902zM316.001 604.001c-1.33301 -1.33301 -2.99609 -2 -4.99609 -2h-182c-2 0 -3.66699 0.666992 -5 2l-73 73c-2.66699 2.66699 -3.33398 5.33398 -2.00098 8.00098s3.66602 4 6.99902 4h328
c3.33301 0 5.66602 -1.33301 6.99902 -4s0.666016 -5.33398 -2.00098 -8.00098zM117.005 408.001c0 -2 -0.667969 -3.66602 -2.00098 -4.99902l-54 -54c-3.33301 -3.33301 -6.66602 -3.33301 -9.99902 0l-19 18c-0.666992 0.666992 -1 2.33398 -1 5.00098v292
c0 3.33301 1.16699 5.66602 3.5 6.99902s4.83301 0.666016 7.5 -2.00098l73 -73c1.33301 -1.33301 2 -3 2 -5v-183z" />
    <glyph glyph-name="G" unicode="G" 
d="M355 2c-1.33301 -1.33301 -3 -2 -5 -2h-256c-2 0 -3.66699 0.666992 -5 2l-18 19c-3.33301 2.66699 -3.33301 5.66699 0 9l55 54c1.33301 1.33301 3 2 5 2h182c2 0 3.66699 -0.666992 5 -2l55 -54c2.66699 -3.33301 2.66699 -6.33301 0 -9zM391 38
c-3.33301 -3.33301 -6.33301 -3.33301 -9 0l-55 55c-1.33301 1.33301 -2 3 -2 5v182c0 2 0.666992 3.66699 2 5l55 55c2.66699 2.66699 5.66699 2.66699 9 0l19 -17c1.33301 -1.33301 2 -3 2 -5v-256c0 -2 -0.666992 -3.66699 -2 -5zM337 603l-205.998 0.00195312
c-2 0 -3.66699 0.666992 -5 2l-55 55c-3.33301 3.33301 -3.33301 6.66602 0 9.99902l18 17c1.33301 1.33301 3 2 5 2h313c3.33301 0 5.66602 -1.33301 6.99902 -4s0.666016 -5.33398 -2.00098 -8.00098zM63.002 38.002c-3.33301 -3.33301 -6.66602 -3.33301 -9.99902 0
l-18 19c-1.33301 1.33301 -2 3 -2 5v256c0 2 0.666992 3.66699 2 5l18 17c3.33301 3.33301 6.66602 3.33301 9.99902 0l54 -55c1.33301 -1.33301 2 -3 2 -5v-182c0 -2 -0.666992 -3.66699 -2 -5zM63.002 349.002c-3.33301 -3.33301 -6.66602 -3.33301 -9.99902 0l-18 19
c-1.33301 1.33301 -2 3 -2 5v254c0 2 0.666992 3.66699 2 5l18 19c3.33301 3.33301 6.66602 3.33301 9.99902 0l54 -55c1.33301 -1.33301 2 -3 2 -5v-182c0 -2 -0.666992 -3.66699 -2 -5zM328.002 303.002c-1.33301 -1.33301 -3 -2 -5 -2h-116c-2 0 -3.66699 0.666992 -5 2
l-36 37c-3.33301 3.33301 -3.33301 6.66602 0 9.99902l36 36c1.33301 1.33301 3 2 5 2h116c2 0 3.66699 -0.666992 5 -2l36 -36c3.33301 -3.33301 3.33301 -6.66602 0 -9.99902z" />
    <glyph glyph-name="H" unicode="H" 
d="M326 77l0.000976562 203.998c0 2 0.666992 3.66699 2 5l55 55c2.66699 2.66699 5.66699 2.66699 9 0l18 -18c1.33301 -1.33301 2 -3 2 -5v-311c0 -3.33301 -1.33301 -5.66602 -4 -6.99902s-5.33398 -0.666016 -8.00098 2.00098zM412.001 372.998
c0 -2 -0.667969 -3.66895 -2.00098 -5.00195l-18 -19c-3.33301 -3.33301 -6.33301 -3.33301 -9 0l-55 55c-1.33301 1.33301 -2 3 -2 5v204l74 75c2.66699 2.66699 5.33398 3.33398 8.00098 2.00098s4 -3.66602 4 -6.99902v-310zM120 408.996
c0 -2 -0.667969 -3.66504 -2.00098 -4.99805l-55 -55c-3.33301 -3.33301 -6.66602 -3.33301 -9.99902 0l-17 19c-1.33301 1.33301 -2 3 -2 5v310c0 3.33301 1.16699 5.66602 3.5 6.99902s4.83301 0.666016 7.5 -2.00098l75 -75v-204zM328.999 303.998
c-1.33301 -1.33301 -3 -2 -5 -2h-202c-2 0 -3.66699 0.666992 -5 2l-36 36c-3.33301 3.33301 -3.33301 6.66602 0 9.99902l36 36c1.33301 1.33301 3 2 5 2h202c2 0 3.66699 -0.666992 5 -2l36 -36c3.33301 -3.33301 3.33301 -6.66602 0 -9.99902zM44.999 1.99805
c-2.66699 -2.66699 -5.16602 -3.33203 -7.49902 -1.99902s-3.5 3.66602 -3.5 6.99902v311c0 2 0.666992 3.66699 2 5l17 18c3.33301 3.33301 6.66602 3.33301 9.99902 0l55 -55c1.33301 -1.33301 2 -3 2 -5v-201c0 -2 -0.666992 -3.66699 -2 -5z" />
    <glyph glyph-name="I" unicode="I" horiz-adv-x="145" 
d="M94 349c-3.33301 -3.33301 -6.66602 -3.33301 -9.99902 0l-55 55c-1.33301 1.33301 -2 3 -2 5v218c0 2 0.666992 3.66699 2 5l55 55c3.33301 3.33301 6.66602 3.33301 9.99902 0l18 -18c1.33301 -1.33301 2 -3 2 -5v-292c0 -2 -0.666992 -3.66699 -2 -5zM94 2
c-3.33301 -3.33301 -6.66602 -3.33301 -9.99902 0l-55 55c-1.33301 1.33301 -2 3 -2 5v218c0 2 0.666992 3.66699 2 5l55 55c3.33301 3.33301 6.66602 3.33301 9.99902 0l18 -18c1.33301 -1.33301 2 -3 2 -5v-292c0 -2 -0.666992 -3.66699 -2 -5z" />
    <glyph glyph-name="J" unicode="J" 
d="M391 349c-3.33301 -3.33301 -6.33398 -3.33496 -9.00098 -0.00195312l-55 55c-1.33301 1.33301 -2 3 -2 5v201c0 2 0.666992 3.66699 2 5l72 72c2.66699 2.66699 5.33398 3.33398 8.00098 2.00098s4 -3.66602 4 -6.99902v-312zM326.999 92.998
c-1.33301 1.33301 -1.99902 3 -1.99902 5v182c0 2 0.666992 3.66699 2 5l55 55c2.66699 2.66699 5.66699 2.66699 9 0l18 -17c1.33301 -1.33301 2 -3 2 -5v-293c0 -3.33301 -1.33301 -5.5 -4 -6.5s-5.33398 -0.166992 -8.00098 2.5zM57 -0.00195312
c-3.33301 0 -5.66797 1.33301 -7.00098 4s-0.666016 5.33398 2.00098 8.00098l74 73c1.33301 1.33301 3 2 5 2h182c2 0 3.66699 -0.666992 5 -2l73 -73c2.66699 -2.66699 3.5 -5.33398 2.5 -8.00098s-3.16699 -4 -6.5 -4h-330zM43.998 20.998
c-2.66699 -2.66699 -5.16699 -3.5 -7.5 -2.5s-3.5 3.16699 -3.5 6.5v250c0 3.33301 1.16699 5.5 3.5 6.5s4.83301 0.166992 7.5 -2.5l73 -72c1.33301 -1.33301 2 -3 2 -5v-104c0 -2 -0.666992 -3.66699 -2 -5z" />
    <glyph glyph-name="K" unicode="K" 
d="M411 7c0 -3.33301 -1.33203 -5.66797 -3.99902 -7.00098s-5.33398 -0.666016 -8.00098 2.00098l-72 73c-1.33301 0 -2 1.33301 -2 4v201c0 2 0.666992 3.66699 2 5l55 55c2.66699 2.66699 5.66699 2.66699 9 0l18 -18c1.33301 -1.33301 2 -3 2 -5v-310zM411.001 629.998
c0 -2 -0.666992 -3.66699 -2 -5l-223 -223c-1.33301 -1.33301 -3 -2 -5 -2h-44c-4 0 -6 2.33301 -6 7v61c0 2 0.666992 3.66699 2 5l215 214c1.33301 1.33301 3 2 5 2h51c4.66699 0 7 -2.33301 7 -7v-52zM119.001 407.998c0 -2 -0.667969 -3.66504 -2.00098 -4.99805
l-55 -54c-3.33301 -3.33301 -6.66602 -3.33301 -9.99902 0l-17 18c-1.33301 1.33301 -2 3 -2 5v310c0 3.33301 1.16699 5.66602 3.5 6.99902s4.83301 0.666016 7.5 -2.00098l75 -75v-204zM328 303c-1.33301 -1.33301 -3 -2 -5 -2h-202c-2 0 -3.66699 0.666992 -5 2l-36 36
c-3.33301 3.33301 -3.33301 6.66602 0 9.99902l36 37c1.33301 1.33301 3 2 5 2h202c2 0 3.66699 -0.666992 5 -2l36 -37c3.33301 -3.33301 3.33301 -6.66602 0 -9.99902zM119 79c0 -2.66699 -0.666016 -3.99805 -1.99902 -3.99805l-73 -73
c-2.66699 -2.66699 -5.16699 -3.33398 -7.5 -2.00098s-3.5 3.66602 -3.5 6.99902v310c0 2 0.666992 3.66699 2 5l17 18c3.33301 3.33301 6.66602 3.33301 9.99902 0l55 -55c1.33301 -1.33301 2 -3 2 -5v-201z" />
    <glyph glyph-name="L" unicode="L" horiz-adv-x="408" 
d="M63 349c-3.33301 -3.33301 -6.66797 -3.33105 -10.001 0.00195312l-19 19c-1.33301 1.33301 -2 3 -2 5v310c0 3.33301 1.33301 5.66602 4 6.99902s5.33398 0.666016 8.00098 -2.00098l75 -75v-204c0 -2 -0.666992 -3.66699 -2 -5zM57.998 0.00195312
c-3.33301 0 -5.66992 1.33301 -7.00293 4s-0.666016 5.33398 2.00098 8.00098l73 73c1.33301 1.33301 3 2 5 2h182c2 0 3.66699 -0.666992 5 -2l73 -73c2.66699 -2.66699 3.33398 -5.33398 2.00098 -8.00098s-3.66602 -4 -6.99902 -4h-328zM43.9941 21.002
c-2.66699 -2.66699 -5.33203 -3.5 -7.99902 -2.5s-4 3.16699 -4 6.5v293c0 2 0.666992 3.66699 2 5l19 18c3.33301 3.33301 6.66602 3.33301 9.99902 0l54 -55c1.33301 -1.33301 2 -3 2 -5v-182c0 -2 -0.666992 -3.66699 -2 -5z" />
    <glyph glyph-name="M" unicode="M" horiz-adv-x="498" 
d="M378 75c-1.33301 1.33301 -1.99805 2.99805 -1.99805 4.99805v201c0 2 0.666992 3.66699 2 5l55 55c3.33301 3.33301 6.66602 3.33301 9.99902 0l18 -18c1.33301 -1.33301 2 -3 2 -5v-311c0 -3.33301 -1.33301 -5.66602 -4 -6.99902s-5.33398 -0.666016 -8.00098 2.00098
zM463.002 372.998c0 -2 -0.668945 -3.66895 -2.00195 -5.00195l-18 -19c-3.33301 -3.33301 -6.66602 -3.33301 -9.99902 0l-55 55c-1.33301 1.33301 -2 3 -2 5v182c0 2 0.666992 3.66699 2 5l73 74c2.66699 2.66699 5.33398 3.33398 8.00098 2.00098s4 -3.66602 4 -6.99902
v-292zM249 330.996c-3.33301 -3.33301 -6.66699 -3.33301 -10 0l-37 37c-1.33301 1.33301 -2 3 -2 5v211c0 4.66699 2.33301 7 7 7h74c4.66699 0 7 -2.33301 7 -7v-211c0 -2 -0.666992 -3.66699 -2 -5zM369.999 604.996c-1.33301 -1.33301 -2.99805 -2 -4.99805 -2h-237
c-2 0 -3.66699 0.666992 -5 2l-74 73c-2 2.66699 -2.5 5.33398 -1.5 8.00098s3.16699 4 6.5 4h384c3.33301 0 5.66602 -1.33301 6.99902 -4s0.666016 -5.33398 -2.00098 -8.00098zM116.001 408.996c0 -2 -0.668945 -3.66504 -2.00195 -4.99805l-55 -55
c-3.33301 -3.33301 -6.66602 -3.33301 -9.99902 0l-18 19c-1.33301 1.33301 -2 3 -2 5v292c0 3.33301 1.33301 5.66602 4 6.99902s5.33398 0.666016 8.00098 -2.00098l73 -74c1.33301 -1.33301 2 -3 2 -5v-182zM40.999 1.99805
c-2.66699 -2.66699 -5.33203 -3.33203 -7.99902 -1.99902s-4 3.66602 -4 6.99902v311c0 2 0.666992 3.66699 2 5l18 18c3.33301 3.33301 6.66602 3.33301 9.99902 0l55 -55c1.33301 -1.33301 2 -3 2 -5v-201c0 -2 -0.666992 -3.66699 -2 -5z" />
    <glyph glyph-name="N" unicode="N" 
d="M392 2c-3.33301 -3.33301 -6.33301 -3.33301 -9 0l-55 55c-1.33301 1.33301 -2 3 -2 5v218c0 2 0.666992 3.66699 2 5l55 55c2.66699 2.66699 5.66699 2.66699 9 0l18 -18c1.33301 -1.33301 2 -3 2 -5v-292c0 -2 -0.666992 -3.66699 -2 -5zM392 349
c-3.33301 -3.33301 -6.33301 -3.33301 -9 0l-55 55c-1.33301 1.33301 -2 3 -2 5v218c0 2 0.666992 3.66699 2 5l55 55c2.66699 2.66699 5.66699 2.66699 9 0l18 -18c1.33301 -1.33301 2 -3 2 -5v-292c0 -2 -0.666992 -3.66699 -2 -5zM314 409c0 -4.66699 -2.33301 -7 -7 -7
h-30l-143 142c-1.33301 1.33301 -2 3 -2 5v78c0 4.66699 2 7 6 7h26c2 0 3.66699 -0.666992 5 -2l143 -143c1.33301 -1.33301 2 -3 2 -5v-75zM63 349c-3.33301 -3.33301 -6.66602 -3.33301 -9.99902 0l-17 18c-1.33301 1.33301 -2 3 -2 5v292c0 2 0.666992 3.66699 2 5
l17 18c3.33301 3.33301 6.66602 3.33301 9.99902 0l55 -55c1.33301 -1.33301 2 -3 2 -5v-218c0 -2 -0.666992 -3.66699 -2 -5zM63 2c-3.33301 -3.33301 -6.66602 -3.33301 -9.99902 0l-17 18c-1.33301 1.33301 -2 3 -2 5v292c0 2 0.666992 3.66699 2 5l17 18
c3.33301 3.33301 6.66602 3.33301 9.99902 0l55 -55c1.33301 -1.33301 2 -3 2 -5v-218c0 -2 -0.666992 -3.66699 -2 -5z" />
    <glyph glyph-name="O" unicode="O" 
d="M391 39c-3.33301 -3.33301 -6.33301 -3.33301 -9 0l-55 54c-1.33301 1.33301 -2 3 -2 5v183c0 2 0.666992 3.66699 2 5l55 55c2.66699 2.66699 5.66699 2.66699 9 0l19 -18c1.33301 -1.33301 2 -3 2 -5v-256c0 -2 -0.666992 -3.66699 -2 -5zM391 349
c-3.33301 -3.33301 -6.33301 -3.33301 -9 0l-55 55c-1.33301 1.33301 -2 3 -2 5v183c0 2 0.666992 3.66699 2 5l55 54c2.66699 2.66699 5.66699 2.66699 9 0l19 -18c1.33301 -1.33301 2 -3 2 -5v-255c0 -2 -0.666992 -3.66699 -2 -5zM319 605c-1.33301 -1.33301 -3 -2 -5 -2
h-183c-2 0 -3.66699 0.666992 -5 2l-55 55c-3.33301 3.33301 -3.33301 6.66602 0 9.99902l18 18c1.33301 1.33301 3 2 5 2h256c2 0 3.66699 -0.666992 5 -2l18 -18c3.33301 -3.33301 3.33301 -6.66602 0 -9.99902zM63 349c-3.33301 -3.33301 -6.66602 -3.33301 -9.99902 0
l-18 19c-1.33301 1.33301 -2 3 -2 5v255c0 2 0.666992 3.66699 2 5l18 18c3.33301 3.33301 6.66602 3.33301 9.99902 0l55 -54c1.33301 -1.33301 2 -3 2 -5v-183c0 -2 -0.666992 -3.66699 -2 -5zM63 39c-3.33301 -3.33301 -6.66602 -3.33301 -9.99902 0l-18 18
c-1.33301 1.33301 -2 3 -2 5v256c0 2 0.666992 3.66699 2 5l18 18c3.33301 3.33301 6.66602 3.33301 9.99902 0l55 -55c1.33301 -1.33301 2 -3 2 -5v-183c0 -2 -0.666992 -3.66699 -2 -5zM355 2c-1.33301 -1.33301 -3 -2 -5 -2h-256c-2 0 -3.66699 0.666992 -5 2l-18 19
c-3.33301 2.66699 -3.33301 5.66699 0 9l55 55c1.33301 1.33301 3 2 5 2h183c2 0 3.66699 -0.666992 5 -2l54 -55c2.66699 -3.33301 2.66699 -6.33301 0 -9z" />
    <glyph glyph-name="P" unicode="P" horiz-adv-x="437" 
d="M390 349c-3.33301 -3.33301 -6.33301 -3.33301 -9 0l-55 55c-1.33301 1.33301 -2 3 -2 5v182c0 2 0.666992 3.66699 2 5l55 55c2.66699 2.66699 5.66699 2.66699 9 0l19 -19c1.33301 -1.33301 2 -3 2 -5v-255c0 -2 -0.666992 -3.66699 -2 -5zM318 605
c-1.33301 -1.33301 -3 -2.00195 -5 -2.00195h-183c-2 0 -3.66699 0.666992 -5 2l-12 12l-31.5 29.5c-11.667 11 -21.5 21.167 -29.5 30.5c-2 2.66699 -2.5 5.33398 -1.5 8.00098s3.16699 4 6.5 4h292c2 0 3.66699 -0.666992 5 -2l19 -18
c3.33301 -3.33301 3.33301 -6.66602 0 -9.99902zM62 348.998c-3.33301 -3.33301 -6.66699 -3.33105 -10 0.00195312l-18 18c-1.33301 1.33301 -2 3 -2 5v292c0 3.33301 1.16699 5.66602 3.5 6.99902s4.83301 0.666016 7.5 -2.00098l74 -73c1.33301 -1.33301 2 -3 2 -5v-182
c0 -2 -0.666992 -3.66699 -2 -5zM363.999 349c3.33301 -3.33301 3.33301 -6.66602 0 -9.99902l-37 -36c-1.33301 -1.33301 -3 -2 -5 -2h-201c-2 0 -3.66699 0.666992 -5 2l-37 36c-3.33301 3.33301 -3.33301 6.66602 0 9.99902l37 37c1.33301 1.33301 3 2 5 2h201
c2 0 3.66699 -0.666992 5 -2zM42.999 2c-2.66699 -2.66699 -5.16602 -3.33203 -7.49902 -1.99902s-3.5 3.66602 -3.5 6.99902v310c0 2 0.666992 3.66699 2 5l18 18c3.33301 3.33301 6.66602 3.33301 9.99902 0l55 -55c1.33301 -1.33301 2 -3 2 -5v-201
c0 -2.66699 -0.666992 -4 -2 -4z" />
    <glyph glyph-name="Q" unicode="Q" 
d="M326 12c2.66699 -2.66699 3.33203 -5.33301 1.99902 -8s-3.66602 -4 -6.99902 -4h-226c-2 0 -3.66699 0.666992 -5 2l-17 19c-3.33301 2.66699 -3.33301 5.66699 0 9l55 55c1.33301 1.33301 3 2 5 2h115c2 0 3.66699 -0.666992 5 -2zM412.998 7.00098
c0 -4.66699 -2.33301 -7 -7 -7h-51c-2 0 -3.66699 0.666992 -5 2l-109 109c-1.33301 1.33301 -2 3 -2 5v60c0 4.66699 2.33301 7 7 7h43c2 0 3.66699 -0.666992 5 -2l119 -119v-55zM326.998 163.001l0.000976562 117.998c0 2 0.666992 3.66699 2 5l54 55
c2.66699 2.66699 5.66699 2.66699 9 0l19 -18c1.33301 -1.33301 2 -3 2 -5v-226c0 -3.33301 -1.33301 -5.66602 -4 -6.99902s-5.33398 -0.666016 -8.00098 2.00098zM391.999 348.999c-3.33301 -3.33301 -6.33301 -3.33301 -9 0l-54 55c-1.33301 1.33301 -2 3 -2 5v183
c0 2 0.666992 3.66699 2 5l54 55c2.66699 2.66699 5.66699 2.66699 9 0l19 -19c1.33301 -1.33301 2 -3 2 -5v-255c0 -2 -0.666992 -3.66699 -2 -5zM319.999 604.999c-1.33301 -1.33301 -3 -2 -5 -2h-182c-2 0 -3.66699 0.666992 -5 2l-55 55
c-3.33301 3.33301 -3.33301 6.66602 0 9.99902l17 18c1.33301 1.33301 3 2 5 2h256c2 0 3.66699 -0.666992 5 -2l19 -18c3.33301 -3.33301 3.33301 -6.66602 0 -9.99902zM63.999 348.999c-3.33301 -3.33301 -6.66602 -3.33301 -9.99902 0l-17 19c-1.33301 1.33301 -2 3 -2 5
v255c0 2 0.666992 3.66699 2 5l17 19c3.33301 3.33301 6.66602 3.33301 9.99902 0l55 -55c1.33301 -1.33301 2 -3 2 -5v-183c0 -2 -0.666992 -3.66699 -2 -5zM63.999 38.999c-3.33301 -3.33301 -6.66602 -3.33301 -9.99902 0l-17 18c-1.33301 1.33301 -2 3 -2 5v256
c0 2 0.666992 3.66699 2 5l17 18c3.33301 3.33301 6.66602 3.33301 9.99902 0l55 -55c1.33301 -1.33301 2 -3 2 -5v-182c0 -2 -0.666992 -3.66699 -2 -5z" />
    <glyph glyph-name="R" unicode="R" 
d="M412 7c0 -4.66699 -2.33301 -7 -7 -7h-52c-2 0 -3.66699 0.666992 -5 2l-214 216c-1.33301 1.33301 -2 3 -2 5v60c0 4.66699 2 7 6 7h44c2 0 3.66699 -0.666992 5 -2l223 -224c1.33301 -1.33301 2 -3 2 -5v-52zM45 2
c-2.66699 -2.66699 -5.16602 -3.33203 -7.49902 -1.99902s-3.5 3.66602 -3.5 6.99902v311c0 2 0.666992 3.66699 2 5l17 18c3.33301 3.33301 6.66602 3.33301 9.99902 0l55 -55c1.33301 -1.33301 2 -3 2 -5v-201c0 -2 -0.666992 -3.66699 -2 -5zM319.001 605.002
c-1.33301 -1.33301 -2.99805 -2.00195 -4.99805 -2.00195h-182c-2 0 -3.66699 0.666992 -5 2l-74 73c-2.66699 2.66699 -3.33398 5.33398 -2.00098 8.00098s3.66602 4 6.99902 4h292c2 0 3.66699 -0.666992 5 -2l19 -18c3.33301 -3.33301 3.33301 -6.66602 0 -9.99902z
M392.003 349c-3.33301 -3.33301 -6.33301 -3.33301 -9 0l-55 55c-1.33301 1.33301 -2 3 -2 5v182c0 2 0.666992 3.66699 2 5l55 55c2.66699 2.66699 5.66699 2.66699 9 0l18 -18c1.33301 -1.33301 2 -3 2 -5v-258zM365.003 350
c3.33301 -3.33301 3.33301 -6.66602 0 -9.99902l-36 -36c-1.33301 -1.33301 -3 -2 -5 -2h-202c-2 0 -3.66699 0.666992 -5 2l-36 36c-3.33301 3.33301 -3.33301 6.66602 0 9.99902l36 36c1.33301 1.33301 3 2 5 2h202c2 0 3.66699 -0.666992 5 -2zM63.0029 349
c-3.33301 -3.33301 -6.66699 -3.33105 -10 0.00195312l-17 19c-1.33301 1.33301 -2 3 -2 5v292c0 3.33301 1.16699 5.66602 3.5 6.99902s4.83301 0.666016 7.5 -2.00098l75 -76v-185c0 -2 -0.666992 -3.66699 -2 -5z" />
    <glyph glyph-name="S" unicode="S" 
d="M335 603l-203.998 0.00195312c-2 0 -3.66699 0.666992 -5 2l-55 55c-3.33301 3.33301 -3.33301 6.66602 0 9.99902l18 17c1.33301 1.33301 3 2 5 2h311c3.33301 0 5.66602 -1.33301 6.99902 -4s0.666016 -5.33398 -2.00098 -8.00098zM63.002 349.002
c-3.33301 -3.33301 -6.66602 -3.33301 -9.99902 0l-18 19c-1.33301 1.33301 -2 3 -2 5v255c0 2 0.666992 3.66699 2 5l18 18c3.33301 3.33301 6.66602 3.33301 9.99902 0l54 -55c1.33301 -1.33301 2 -3 2 -5v-182c0 -2 -0.666992 -3.66699 -2 -5zM328.002 303.002
c-1.33301 -1.33301 -3 -2 -5 -2h-202c-2 0 -3.66699 0.666992 -5 2l-36 37c-3.33301 3.33301 -3.33301 6.66602 0 9.99902l36 36c1.33301 1.33301 3 2 5 2h202c2 0 3.66699 -0.666992 5 -2l36 -36c3.33301 -3.33301 3.33301 -6.66602 0 -9.99902zM391.002 38.002
c-3.33301 -3.33301 -6.33301 -3.33301 -9 0l-55 55c-1.33301 1.33301 -2 3 -2 5v182c0 2 0.666992 3.66699 2 5l55 55c2.66699 2.66699 5.66699 2.66699 9 0l19 -17c1.33301 -1.33301 2 -3 2 -5v-256c0 -2 -0.666992 -3.66699 -2 -5zM355.002 2.00195
c-1.33301 -1.33301 -3 -2.00098 -5 -2.00098h-311c-3.33301 0 -5.5 1.33301 -6.5 4s-0.166992 5.33398 2.5 8.00098l72 72c1.33301 1.33301 3 2 5 2l20 1h181c2 0 3.66699 -0.666992 5 -2l55 -55c2.66699 -3.33301 2.66699 -6.33301 0 -9z" />
    <glyph glyph-name="T" unicode="T" horiz-adv-x="435" 
d="M238 2c-3.33301 -3.33301 -6.33301 -3.33203 -9 0.000976562l-55 55c-1.33301 1.33301 -2 3 -2 5v218c0 2 0.666992 3.66699 2 5l55 55c2.66699 2.66699 5.66699 2.66699 9 0l19 -17c1.33301 -1.33301 2 -3 2 -5v-293c-0.666992 -0.666992 -1 -1.33398 -1 -2.00098l-1 -2
zM238 349.001c-3.33301 -3.33301 -6.33301 -3.33301 -9 0l-55 55c-1.33301 1.33301 -2 3 -2 5v177c0 4.66699 2.33301 7 7 7h73c4.66699 0 7 -2.33301 7 -7v-213c0 -2 -0.666992 -3.66699 -2 -5zM417 670.001c3.33301 -3.33301 3.33398 -6.66602 0.000976562 -9.99902
l-55 -55c-1.33301 -1.33301 -3 -2 -5 -2h-282c-2 0 -3.66699 0.666992 -5 2l-55 55c-3.33301 3.33301 -3.33301 6.66602 0 9.99902l18 17c1.33301 1.33301 2.66602 2 3.99902 2h359z" />
    <glyph glyph-name="U" unicode="U" 
d="M56 0c-3.33301 0 -5.66797 1.33301 -7.00098 4s-0.666016 5.33398 2.00098 8.00098l73 72c1.33301 1.33301 3 2 5 2h183c2 0 3.66699 -0.666992 5 -2l72 -72c2.66699 -2.66699 3.5 -5.33398 2.5 -8.00098s-3.16699 -4 -6.5 -4h-329zM409.998 25
c0 -3.33301 -1.33203 -5.5 -3.99902 -6.5s-5.33398 -0.166992 -8.00098 2.5l-73 72c-1.33301 1.33301 -2 3 -2 5v182c0 2 0.666992 3.66699 2 5l55 55c2.66699 2.66699 5.66699 2.66699 9 0l19 -17c1.33301 -1.33301 2 -3 2 -5v-293zM388.999 349
c-3.33301 -3.33301 -6.33398 -3.33496 -9.00098 -0.00195312l-55 55c-1.33301 1.33301 -2 3 -2 5v201c0 2 0.666992 3.66699 2 5l73 72c2.66699 2.66699 5.33398 3.33398 8.00098 2.00098s4 -3.66602 4 -6.99902v-309c0 -2 -0.666992 -3.66699 -2 -5zM60.998 348.998
c-3.33301 -3.33301 -6.66699 -3.33105 -10 0.00195312l-18 19c-1.33301 1.33301 -2 3 -2 5v309c0 3.33301 1.16699 5.66602 3.5 6.99902s4.83301 0.666016 7.5 -2.00098l74 -72c1.33301 -1.33301 2 -3 2 -5v-201c0 -2 -0.666992 -3.66699 -2 -5zM117.997 98
c0 -2 -0.666016 -3.66699 -1.99902 -5l-74 -72c-2.66699 -2.66699 -5.16699 -3.5 -7.5 -2.5s-3.5 3.16699 -3.5 6.5v293c0 2 0.666992 3.66699 2 5l18 17c3.33301 3.33301 6.66602 3.33301 9.99902 0l55 -55c1.33301 -1.33301 2 -3 2 -5v-182z" />
    <glyph glyph-name="V" unicode="V" horiz-adv-x="439" 
d="M405 317c0 -2.66699 -0.333008 -4.33008 -1 -4.99707l-73 -153.5l-71 -154.5c-1.33301 -2.66699 -3.33301 -4 -6 -4h-22c-4.66699 0 -7 2.33301 -7 7v124c0 1.33301 1.83301 6.16602 5.5 14.499l13.5 31c5.33301 12.333 11.5 25.666 18.5 39.999l20.5 41.5l27 58
c0 2.66699 1.33301 4 4 4l73 26c4.66699 1.33301 7.66699 -0.333984 9 -5.00098zM389 349.004c-3.33301 -3.33301 -6.33398 -3.33496 -9.00098 -0.00195312l-55 55c-1.33301 1.33301 -2 3 -2 5v204l74 75c2.66699 2.66699 5.33398 3.33398 8.00098 2.00098
s4 -3.66602 4 -6.99902v-313zM59.999 349.002c-3.33301 -3.33301 -6.66699 -3.33105 -10 0.00195312l-17 19c-1.33301 1.33301 -2 3 -2 5v310c0 3.33301 1.16699 5.66602 3.5 6.99902s4.83301 0.666016 7.5 -2.00098l75 -75v-204c0 -2 -0.666992 -3.66699 -2 -5z
M214.998 7.00391c0 -4.66699 -2.33301 -7 -7 -7h-22c-2.66699 0 -4.66699 1.33301 -6 4l-144 308v5l8 24c1.33301 4.66699 4.33301 6.33398 9 5.00098l75 -27l29 -61l19.5 -40.5l19 -40.5l14 -32c3.66699 -8.66699 5.5 -13.334 5.5 -14.001v-124z" />
    <glyph glyph-name="W" unicode="W" horiz-adv-x="498" 
d="M444 349c-3.33301 -3.33301 -6.66797 -3.33496 -10.001 -0.00195312l-55 55c-1.33301 1.33301 -2 3 -2 5v201c0 2 0.666992 3.66699 2 5l73 73c2.66699 2.66699 5.33398 3.33398 8.00098 2.00098s4 -3.66602 4 -6.99902v-310c0 -2 -0.666992 -3.66699 -2 -5z
M463.998 24.998c0 -3.33301 -1.33105 -5.5 -3.99805 -6.5s-5.33398 -0.166992 -8.00098 2.5l-73 73c-1.33301 1.33301 -2 3 -2 5v182c0 2 0.666992 3.66699 2 5l55 55c3.33301 3.33301 6.66602 3.33301 9.99902 0l18 -18c1.33301 -1.33301 2 -3 2 -5v-293zM55 -0.00195312
c-3.33301 0 -5.50195 1.33301 -6.50195 4s-0.5 5.33398 1.5 8.00098l74 73c1.33301 1.33301 3 2 5 2h237c2 0 3.66699 -0.666992 5 -2l73 -73c2.66699 -2.66699 3.33398 -5.33398 2.00098 -8.00098s-3.66602 -4 -6.99902 -4h-384zM212.998 98.998
c-4.66699 0 -7 2.33301 -7 7v212c0 2 0.666992 3.66699 2 5l37 36c2.66699 2.66699 5.66699 2.66699 9 0l37 -36c1.33301 -1.33301 2 -3 2 -5v-212c0 -4.66699 -2.33301 -7 -7 -7h-73zM59.998 348.998c-3.33301 -3.33301 -6.66797 -3.33105 -10.001 0.00195312l-18 19
c-1.33301 1.33301 -2 3 -2 5v310c0 3.33301 1.33301 5.66602 4 6.99902s5.33398 0.666016 8.00098 -2.00098l73 -73c1.33301 -1.33301 2 -3 2 -5v-201c0 -2 -0.666992 -3.66699 -2 -5zM116.996 99c0 -2 -0.665039 -3.66699 -1.99805 -5l-73 -73
c-2.66699 -2.66699 -5.33398 -3.5 -8.00098 -2.5s-4 3.16699 -4 6.5v293c0 2 0.666992 3.66699 2 5l18 18c3.33301 3.33301 6.66602 3.33301 9.99902 0l55 -55c1.33301 -1.33301 2 -3 2 -5v-182z" />
    <glyph glyph-name="X" unicode="X" horiz-adv-x="416" 
d="M392 29l-11 -24c-2 -3.33301 -4 -5 -6 -5h-59c-2.66699 -0 -4.66699 1.33301 -6 4s-4.5 10.167 -9.5 22.5l-18.5 44l-23 54.5l-22.5 53.5l-17 40.5l-6.5 16v98c0 4.66699 2.33301 7 7 7h38c2.66699 0 4.66699 -1.33301 6 -4zM203 235l-6.50098 -16l-17 -40.5l-22.5 -53.5
l-23 -54.5l-18.5 -44c-5 -12.333 -8.16699 -19.833 -9.5 -22.5s-3.33301 -4 -6 -4h-59c-3.33301 0 -5.66602 1.66699 -6.99902 5l-10 24l128 307c1.33301 2.66699 3.33301 4 6 4h38c4.66699 0 7 -2.33301 7 -7v-98zM202.999 357c0 -4.66699 -2.33203 -7 -6.99902 -7h-38
c-2.66699 0 -4.66699 1.33301 -6 4l-128 306l10 24c1.33301 3.33301 3.66602 5 6.99902 5h59c2.66699 0 4.66699 -1.33301 6 -4s4.5 -10.167 9.5 -22.5l18.5 -44l23 -54.5l22.5 -53c7 -16 12.667 -29.5 17 -40.5l6.5 -16.5v-97zM392 660l-128 -306
c-1.33301 -2.66699 -3.33301 -4 -6 -4h-38c-4.66699 0 -7 2.33301 -7 7v97l6.5 16.5c4.33301 11 10 24.5 17 40.5l22.5 53l23 54.5l18.5 44c5 12.333 8.16699 19.833 9.5 22.5s3.33301 4 6 4h59c3.33301 0 5 -1.33301 5 -4z" />
    <glyph glyph-name="Y" unicode="Y" 
d="M390 349c-3.33301 -3.33301 -6.33398 -3.33496 -9.00098 -0.00195312l-55 55c-1.33301 1.33301 -2 3 -2 5v200c0 2 0.666992 3.66699 2 5l73 73c2.66699 2.66699 5.33398 3.33398 8.00098 2.00098s4 -3.66602 4 -6.99902v-310c0 -2 -0.666992 -3.66699 -2 -5z
M389.999 37.998c-3.33301 -3.33301 -6.33301 -3.33301 -9 0l-55 55c-1.33301 1.33301 -2 3 -2 5v182c0 2 0.666992 3.66699 2 5l55 55c2.66699 2.66699 5.66699 2.66699 9 0l19 -18c1.33301 -1.33301 2 -3 2 -5v-255c0 -2 -0.666992 -3.66699 -2 -5zM353.999 1.99805
c-1.33301 -1.33301 -3 -2.00098 -5 -2.00098h-311c-3.33301 0 -5.5 1.33301 -6.5 4s-0.166992 5.33398 2.5 8.00098l75 74h204c2 0 3.66699 -0.666992 5 -2l55 -55c2.66699 -3.33301 2.66699 -6.33301 0 -9zM326.999 302.997c-1.33301 -1.33301 -3 -2 -5 -2h-202
c-2 0 -3.66699 0.666992 -5 2l-36 36c-3.33301 3.33301 -3.33301 6.66602 0 9.99902l36 37c1.33301 1.33301 3 2 5 2h202c2 0 3.66699 -0.666992 5 -2l36 -37c3.33301 -3.33301 3.33301 -6.66602 0 -9.99902zM60.999 348.997
c-3.33301 -3.33301 -6.66699 -3.33105 -10 0.00195312l-17 18c-1.33301 1.33301 -2 3 -2 5v310c0 3.33301 1.16699 5.66602 3.5 6.99902s4.83301 0.666016 7.5 -2.00098l75 -75v-203c0 -2 -0.666992 -3.66699 -2 -5z" />
    <glyph glyph-name="Z" unicode="Z" horiz-adv-x="422" 
d="M392 29c2.66699 -3.33301 2.66699 -6.33301 0 -9l-18 -18c-1.33301 -1.33301 -3 -2 -5 -2h-313c-2 0 -3.66699 0.666992 -5 2l-29 29c-2 2 -2.33301 4.66699 -1 8l19 43c1.33301 2.66699 3.33301 4 6 4h286c2 0 3.66699 -0.666992 5 -2zM230 296
c0 -0.666992 -0.166992 -1.66699 -0.5 -3s-0.5 -2.33301 -0.5 -3l-86 -189c-1.33301 -2.66699 -3.33301 -4 -6 -4h-80c-6.66699 0 -8.66699 3.33301 -6 10l97 213l34 20h25c2.66699 0 4.66699 -1.33301 6 -4zM338 526c-10 -24 -20.834 -48.668 -32.501 -74.001
s-22.167 -46.666 -31.5 -63.999v1c-2 -2.66699 -7.33301 -7 -16 -13l-24 -17l-12 -10h-34c-3.33301 0 -5.66602 1.66699 -6.99902 5l-8 21l98 213c1.33301 2.66699 3.33301 4 6 4h80c6.66699 0 8.66699 -3.33301 6 -10zM373.999 606.999
c-1.33301 -2.66699 -3.33398 -3.99902 -6.00098 -3.99902h-287c-1.33301 0 -2.66602 0.666992 -3.99902 2l-55 55c-3.33301 3.33301 -3.33301 6.66602 0 9.99902l18 17c1.33301 1.33301 3 2 5 2h312c2 0 3.66699 -0.666992 5 -2l30 -30c2 -2 2.33301 -4.66699 1 -8z" />
    <glyph glyph-name="a" unicode="a" 
d="M324 74c-1.33301 1.33301 -1.99902 2.99805 -1.99902 4.99805v199c0 2 0.666992 3.66699 2 5l55 55c2.66699 2.66699 5.66699 2.66699 9 0l18 -19c1.33301 -1.33301 2 -3 2 -5v-307c0 -3.33301 -1.33301 -5.66602 -4 -6.99902s-5.33398 -0.666016 -8.00098 2.00098z
M408.001 368.998c0 -2 -0.667969 -3.66602 -2.00098 -4.99902l-18 -18c-3.33301 -3.33301 -6.33301 -3.33301 -9 0l-55 54c-1.33301 1.33301 -2 3 -2 5v182c0 1.33301 0.666992 2.66602 2 3.99902l72 72c2.66699 2.66699 5.33398 3.5 8.00098 2.5s4 -3.16699 4 -6.5v-290z
M315 598.999c-1.33301 -1.33301 -2.99512 -2 -4.99512 -2h-181c-0.666992 0.666992 -1.33398 1 -2.00098 1c-1.33301 0 -2 0.333008 -2 1l-73 73c-2.66699 2.66699 -3.33398 5.33398 -2.00098 8.00098s3.66602 4 6.99902 4h326c3.33301 0 5.66602 -1.33301 6.99902 -4
s0.666016 -5.33398 -2.00098 -8.00098zM118.005 404.999c0 -2 -0.667969 -3.66797 -2.00098 -5.00098l-55 -54c-3.33301 -3.33301 -6.33301 -3.33301 -9 0l-18 18c-1.33301 1.33301 -2 3 -2 5v290c0 3.33301 1.33301 5.5 4 6.5s5.33398 0.166992 8.00098 -2.5l72 -72
c1.33301 -1.33301 2 -2.66602 2 -3.99902v-182zM325.004 300.998c-1.33301 -1.33301 -3 -2 -5 -2h-200c-2 0 -3.66699 0.666992 -5 2l-36 36c-3.33301 2.66699 -3.33301 5.66699 0 9l36 37c1.33301 1.33301 3 2 5 2h200c2 0 3.66699 -0.666992 5 -2l36 -37
c3.33301 -3.33301 3.33301 -6.33301 0 -9zM44.0039 1.99805c-2.66699 -2.66699 -5.33301 -3.33203 -8 -1.99902s-4 3.66602 -4 6.99902v307c0 2 0.666992 3.66699 2 5l18 19c2.66699 2 5.66699 2 9 0l55 -55c1.33301 -1.33301 2 -3 2 -5v-199c0 -2 -0.666992 -3.66699 -2 -5
z" />
    <glyph glyph-name="b" unicode="b" 
d="M353 2c-1.33301 -1.33301 -3.00195 -2.00195 -5.00195 -2.00195h-290c-3.33301 0 -5.5 1.33301 -6.5 4s-0.166992 5.33398 2.5 8.00098l72 72c0.666992 0.666992 1.33398 1 2.00098 1s1.33398 0.333008 2.00098 1h182c2 0 3.66699 -0.666992 5 -2l54 -55
c3.33301 -3.33301 3.33301 -6.66602 0 -9.99902zM388.998 37.998c-3.33301 -3.33301 -6.33301 -3.33301 -9 0l-55 54c-1.33301 1.33301 -2 3 -2 5v181c0 2 0.666992 3.66699 2 5l55 55c2.66699 2.66699 5.66699 2.66699 9 0l19 -19c1.33301 -1.33301 2 -3 2 -5v-254
c0 -2 -0.666992 -3.66699 -2 -5zM388.998 345.998c-3.33301 -3.33301 -6.33301 -3.33301 -9 0l-55 54c-1.33301 1.33301 -2 3 -2 5v182c0 1.33301 0.666992 2.66602 2 3.99902l55 55c2.66699 3.33301 5.66699 3.33301 9 0l19 -19c1.33301 -1.33301 2 -2.66602 2 -3.99902
v-254c0 -2 -0.666992 -3.66699 -2 -5zM316.998 598.998c-1.33301 -1.33301 -2.99902 -2.00098 -4.99902 -2.00098h-182c-0.666992 0.666992 -1.33398 1 -2.00098 1c-1.33301 0 -2 0.333008 -2 1l-19 19c-8.66699 8 -17.667 16.833 -27 26.5l-26 27.5
c-2 2.66699 -2.66699 5.33398 -2 8.00098s2.66699 4 6 4h290c2 0 3.66699 -0.666992 5 -2l18 -19c3.33301 -2.66699 3.33301 -5.66699 0 -9zM62.999 345.997c-3.33301 -3.33301 -6.33398 -3.33398 -9.00098 -0.000976562l-19 18c-1.33301 1.33301 -2 3 -2 5v290
c0 3.33301 1.33301 5.5 4 6.5s5.33398 0.166992 8.00098 -2.5l73 -72c1.33301 -1.33301 2 -2.66602 2 -3.99902v-182c0 -2 -0.666992 -3.66699 -2 -5zM325.998 300.996c-1.33301 -1.33301 -3 -2 -5 -2h-199c-2 0 -3.66699 0.666992 -5 2l-37 36
c-3.33301 2.66699 -3.33301 5.66699 0 9l37 37c1.33301 1.33301 3 2 5 2h199c2 0 3.66699 -0.666992 5 -2l37 -37c3.33301 -3.33301 3.33301 -6.33301 0 -9zM44.998 18.9961c-2.66699 -2 -5.33301 -2.5 -8 -1.5s-4 3.16699 -4 6.5v290c0 2 0.666992 3.66699 2 5l19 19
c2.66699 2 5.66699 2 9 0l55 -55c1.33301 -1.33301 2 -3 2 -5v-181c0 -2 -0.666992 -3.66699 -2 -5z" />
    <glyph glyph-name="c" unicode="c" horiz-adv-x="405" 
d="M313 598l-183.998 0.000976562c-2.66699 0 -4 0.666992 -4 2l-55 55c-3.33301 2.66699 -3.33301 5.66699 0 9l19 18c0 1.33301 1.33301 2 4 2h290c3.33301 0 5.66602 -1.33301 6.99902 -4s0.666016 -5.33398 -2.00098 -8.00098zM61.002 346.001
c-3.33301 -3.33301 -6.33301 -3.33301 -9 0l-18 18c-1.33301 1.33301 -2 3 -2 5v254c0 1.33301 0.666992 2.66602 2 3.99902l18 19c2.66699 3.33301 5.66699 3.33301 9 0l55 -55c1.33301 -1.33301 2 -2.66602 2 -3.99902v-181c0 -2 -0.666992 -3.66699 -2 -5z
M388.002 12.001c2.66699 -2.66699 3.33203 -5.33203 1.99902 -7.99902s-3.66602 -4 -6.99902 -4h-290c-2.66699 0 -4 0.666992 -4 2l-19 17c-3.33301 3.33301 -3.33301 6.66602 0 9.99902l55 55c0 1.33301 1.33301 2 4 2h181c2 0 3.66699 -0.666992 5 -2zM61 38.0029
c-3.33301 -3.33301 -6.33301 -3.33301 -9 0l-18 18c-1.33301 1.33301 -2 3 -2 5v254c0 2 0.666992 3.66699 2 5l18 18c2.66699 2.66699 5.66699 2.66699 9 0l55 -55c1.33301 -1.33301 2 -3 2 -5v-181c0 -2 -0.666992 -3.66699 -2 -5z" />
    <glyph glyph-name="d" unicode="d" 
d="M44 20c-2.66699 -2 -5.33301 -2.5 -8 -1.5s-4 3.16699 -4 6.5v290c0 2 0.666992 3.66699 2 5l19 18c2.66699 2 5.66699 2 9 0l55 -55c1.33301 -1.33301 2 -3 2 -5v-181c0 -2 -0.666992 -3.66699 -2 -5zM352.001 2c-1.33301 -1.33301 -3.00391 -2.00195 -5.00391 -2.00195
h-289c-3.33301 0 -5.66602 1.33301 -6.99902 4s-0.666016 5.33398 2.00098 8.00098l72 72c0.666992 0.666992 1.33398 1 2.00098 1s1.33398 0.333008 2.00098 1h182c2 0 3.66699 -0.666992 5 -2l54 -54c3.33301 -3.33301 3.33301 -6.66602 0 -9.99902zM387.997 37.998
c-3.33301 -3.33301 -6.33301 -3.33301 -9 0l-55 54c-1.33301 1.33301 -2 3 -2 5v181c0 2 0.666992 3.66699 2 5l55 55c2.66699 2.66699 5.66699 2.66699 9 0l19 -18c1.33301 -1.33301 2 -3 2 -5v-254c0 -2 -0.666992 -3.66699 -2 -5zM387.997 345.998
c-3.33301 -3.33301 -6.33301 -3.33301 -9 0l-55 55c-1.33301 1.33301 -2 3 -2 5v181c0 1.33301 0.666992 2.66602 2 3.99902l55 55c2.66699 3.33301 5.66699 3.33301 9 0l19 -19c1.33301 -1.33301 2 -2.66602 2 -3.99902v-253c0 -2 -0.666992 -3.66699 -2 -5z
M315.997 599.998c-1.33301 -1.33301 -2.99707 -2.00098 -4.99707 -2.00098h-182c-0.666992 0.666992 -1.33398 1 -2.00098 1c-1.33301 0 -2 0.333008 -2 1l-72 72c-2.66699 2.66699 -3.33398 5.33398 -2.00098 8.00098s3.66602 4 6.99902 4h289c2 0 3.66699 -0.666992 5 -2
l18 -18c2.66699 -3.33301 2.66699 -6.33301 0 -9zM62 345.997c-3.33301 -3.33301 -6.33398 -3.33398 -9.00098 -0.000976562l-19 19c-1.33301 1.33301 -2 3 -2 5v290c0 3.33301 1.33301 5.5 4 6.5s5.33398 0.166992 8.00098 -2.5l73 -73
c1.33301 -1.33301 2 -2.66602 2 -3.99902v-181c0 -2 -0.666992 -3.66699 -2 -5z" />
    <glyph glyph-name="e" unicode="e" horiz-adv-x="412" 
d="M316 600c-1.33301 -1.33301 -2.99805 -2 -4.99805 -2h-181c-2 0 -3.66699 0.666992 -5 2l-71 73c-2.66699 2.66699 -3.5 5.33398 -2.5 8.00098s3.16699 4 6.5 4h326c3.33301 0 5.66602 -1.33301 6.99902 -4s0.666016 -5.33398 -2.00098 -8.00098zM119.002 406
c0 -2 -0.667969 -3.66797 -2.00098 -5.00098l-54 -55c-3.33301 -3.33301 -6.33301 -3.33301 -9 0l-19 19c-1.33301 1.33301 -2 3 -2 5v290c0 3.33301 1.33301 5.5 4 6.5s5.33398 0.166992 8.00098 -2.5l72 -72c1.33301 -1.33301 2 -2.66602 2 -3.99902v-182z
M362.001 346.999c3.33301 -3.33301 3.33301 -6.33301 0 -9l-36 -36c-1.33301 -1.33301 -3 -2 -5 -2h-200c-2 0 -3.66699 0.666992 -5 2l-36 36c-3.33301 2.66699 -3.33301 5.66699 0 9l36 36c1.33301 1.33301 3 2 5 2h200c2 0 3.66699 -0.666992 5 -2zM119.001 94.999
l-73.999 -75c-2.66699 -2 -5.33398 -2.5 -8.00098 -1.5s-4 3.16699 -4 6.5v290c0 2 0.666992 3.66699 2 5l19 19c2.66699 2.66699 5.66699 2.66699 9 0l54 -55c1.33301 -1.33301 2 -3 2 -5v-184zM58.002 -0.000976562c-3.33301 0 -5.50195 1.33301 -6.50195 4
s-0.166992 5.33398 2.5 8.00098l71 73c1.33301 1.33301 3 2 5 2h181c2 0 3.66699 -0.666992 5 -2l73 -73c2.66699 -2.66699 3.33398 -5.33398 2.00098 -8.00098s-3.66602 -4 -6.99902 -4h-326z" />
    <glyph glyph-name="f" unicode="f" horiz-adv-x="404" 
d="M117 79c0 -2 -0.666016 -3.66504 -1.99902 -4.99805l-72 -72c-2.66699 -2.66699 -5.33398 -3.33398 -8.00098 -2.00098s-4 3.66602 -4 6.99902v307c0 2 0.666992 3.66699 2 5l19 19c2.66699 2.66699 5.66699 2.66699 9 0l54 -55c1.33301 -1.33301 2 -3 2 -5v-199z
M324.001 301.002c-1.33301 -1.33301 -3 -2 -5 -2h-200c-2 0 -3.66699 0.666992 -5 2l-36 36c-3.33301 2.66699 -3.33301 5.66699 0 9l36 37c1.33301 1.33301 3 2 5 2h200c2 0 3.66699 -0.666992 5 -2l36 -37c3.33301 -3.33301 3.33301 -6.33301 0 -9zM314.001 599.002
c-1.33301 -1.33301 -2.99805 -2 -4.99805 -2h-181c-2.66699 0 -4 0.666992 -4 2l-72 73c-2.66699 2.66699 -3.5 5.33398 -2.5 8.00098s3.16699 4 6.5 4h326c3.33301 0 5.66602 -1.33301 6.99902 -4s0.666016 -5.33398 -2.00098 -8.00098zM117.003 405.002
c0 -2 -0.667969 -3.66797 -2.00098 -5.00098l-54 -54c-3.33301 -3.33301 -6.33301 -3.33301 -9 0l-19 18c-1.33301 1.33301 -2 3 -2 5v290c0 3.33301 1.33301 5.5 4 6.5s5.33398 0.166992 8.00098 -2.5l72 -72c1.33301 -1.33301 2 -2.66602 2 -3.99902v-182z" />
    <glyph glyph-name="g" unicode="g" 
d="M353 2c-1.33301 -1.33301 -3 -2 -5 -2h-253c-2 0 -3.66699 0.666992 -5 2l-19 18c-3.33301 3.33301 -3.33301 6.66602 0 9.99902l55 54c1.33301 1.33301 3 2 5 2h180c2 0 3.66699 -0.666992 5 -2l55 -54c3.33301 -3.33301 3.33301 -6.66602 0 -9.99902zM389 38
c-3.33301 -3.33301 -6.33301 -3.33301 -9 0l-55 54c-1.33301 1.33301 -2 3 -2 5v181c0 2 0.666992 3.66699 2 5l55 55c2.66699 2.66699 5.66699 2.66699 9 0l19 -18c1.33301 -1.33301 2 -3 2 -5v-254c0 -2 -0.666992 -3.66699 -2 -5zM335 598l-203.998 0.000976562
c-2 0 -3.66699 0.666992 -5 2l-55 55c-3.33301 2.66699 -3.33301 5.66699 0 9l19 18c1.33301 1.33301 3 2 5 2h310c3.33301 0 5.66602 -1.33301 6.99902 -4s0.666016 -5.33398 -2.00098 -8.00098zM63.002 38.001c-3.33301 -3.33301 -6.33301 -3.33301 -9 0l-19 18
c-1.33301 1.33301 -2 3 -2 5v254c0 2 0.666992 3.66699 2 5l19 18c2.66699 2 5.66699 2 9 0l54 -55c1.33301 -1.33301 2 -3 2 -5v-181c0 -2 -0.666992 -3.66699 -2 -5zM63.002 346.001c-3.33301 -3.33301 -6.33301 -3.33301 -9 0l-19 19c-1.33301 1.33301 -2 3 -2 5v253
c0 1.33301 0.666992 2.66602 2 3.99902l19 19c2.66699 2.66699 5.66699 2.66699 9 0l54 -55c1.33301 -1.33301 2 -2.66602 2 -3.99902v-181c0 -2 -0.666992 -3.66699 -2 -5zM326.002 301.001c-1.33301 -1.33301 -3 -2 -5 -2h-115c-2.66699 0 -4 0.666992 -4 2l-36 37
c-3.33301 2.66699 -3.33301 5.66699 0 9l36 36c0 1.33301 1.33301 2 4 2h115c2 0 3.66699 -0.666992 5 -2l36 -36c3.33301 -3.33301 3.33301 -6.33301 0 -9z" />
    <glyph glyph-name="h" unicode="h" 
d="M324 77l0.00195312 201.998c0 2 0.666992 3.66699 2 5l54 55c3.33301 2 6.66602 2 9.99902 0l18 -19c1.33301 -1.33301 2 -3 2 -5v-308c0 -3.33301 -1.33301 -5.66602 -4 -6.99902s-5.33398 -0.666016 -8.00098 2.00098zM410.002 369.998
c0 -2 -0.668945 -3.66895 -2.00195 -5.00195l-18 -19c-3.33301 -3.33301 -6.66602 -3.33301 -9.99902 0l-54 55c-1.33301 1.33301 -2 3 -2 5v202l74 75c2.66699 2.66699 5.33398 3.33398 8.00098 2.00098s4 -3.66602 4 -6.99902v-308zM120 405.996
c0 -2 -0.667969 -3.66504 -2.00098 -4.99805l-55 -55c-3.33301 -3.33301 -6.33301 -3.33301 -9 0l-18 19c-1.33301 1.33301 -2 3 -2 5v308c0 3.33301 1.33301 5.66602 4 6.99902s5.33398 0.666016 8.00098 -2.00098l74 -75v-202zM326.999 301.998
c-1.33301 -1.33301 -3 -2 -5 -2h-200c-2 0 -3.66699 0.666992 -5 2l-36 36c-3.33301 2.66699 -3.33301 5.66699 0 9l36 36c1.33301 1.33301 3 2 5 2h200c2 0 3.66699 -0.666992 5 -2l36 -36c3.33301 -3.33301 3.33301 -6.33301 0 -9zM45.999 1.99805
c-2.66699 -2.66699 -5.33301 -3.33203 -8 -1.99902s-4 3.66602 -4 6.99902v308c0 2 0.666992 3.66699 2 5l18 19c2.66699 2 5.66699 2 9 0l55 -55c1.33301 -1.33301 2 -3 2 -5v-199c0 -2 -0.666992 -3.66699 -2 -5z" />
    <glyph glyph-name="i" unicode="i" horiz-adv-x="145" 
d="M93 346c-3.33301 -3.33301 -6.33301 -3.33301 -9 0l-55 55c-1.33301 1.33301 -2 3 -2 5v217c0 1.33301 0.666992 2.66602 2 3.99902l55 55c2.66699 2.66699 5.66699 2.66699 9 0l19 -19c1.33301 -1.33301 2 -2.66602 2 -3.99902v-290c0 -2 -0.666992 -3.66699 -2 -5z
M93 2c-3.33301 -3.33301 -6.33301 -3.33301 -9 0l-55 54c-1.33301 1.33301 -2 3 -2 5v217c0 2 0.666992 3.66699 2 5l55 55c2.66699 2 5.66699 2 9 0l19 -19c1.33301 -1.33301 2 -3 2 -5v-290c0 -2 -0.666992 -3.66699 -2 -5z" />
    <glyph glyph-name="j" unicode="j" 
d="M389 346c-3.33301 -3.33301 -6.33398 -3.33496 -9.00098 -0.00195312l-55 55c-1.33301 1.33301 -2 3 -2 5v199c0 2 0.666992 3.66699 2 5l72 72c2.66699 2.66699 5.33398 3.33398 8.00098 2.00098s4 -3.66602 4 -6.99902v-310zM324.999 91.998
c-1.33301 1.33301 -1.99902 3 -1.99902 5v181c0 2 0.666992 3.66699 2 5l55 55c2.66699 2.66699 5.66699 2.66699 9 0l18 -18c1.33301 -1.33301 2 -3 2 -5v-290c0 -3.33301 -1.33301 -5.5 -4 -6.5s-5.33398 -0.5 -8.00098 1.5zM58 -0.00195312
c-3.33301 0 -5.67188 1.33301 -7.00488 4s-0.666016 5.33398 2.00098 8.00098l73 73c0.666992 0.666992 1.33398 1 2.00098 1s1.33398 0.333008 2.00098 1h181c2 0 3.66699 -0.666992 5 -2l73 -73c2.66699 -2.66699 3.33398 -5.33398 2.00098 -8.00098
s-3.66602 -4 -6.99902 -4h-326zM44.9941 19.998c-2.66699 -2 -5.33398 -2.49805 -8.00098 -1.49805s-4 3.16699 -4 6.5v247c0 3.33301 1.33301 5.66602 4 6.99902s5.33398 0.666016 8.00098 -2.00098l72 -72c1.33301 -1.33301 2 -3 2 -5v-103c0 -2 -0.666992 -3.66699 -2 -5
z" />
    <glyph glyph-name="k" unicode="k" 
d="M409 7c0 -3.33301 -1.33203 -5.66797 -3.99902 -7.00098s-5.33398 -0.666016 -8.00098 2.00098l-72 72c-1.33301 1.33301 -2 3 -2 5v199c0 2 0.666992 3.66699 2 5l55 55c2.66699 2.66699 5.66699 2.66699 9 0l18 -19c1.33301 -1.33301 2 -3 2 -5v-307zM409.001 624.998
c-0.666992 -0.666992 -1 -1.33301 -1 -2l-1 -2l-222 -222c-1.33301 -1.33301 -3 -2 -5 -2h-43c-4.66699 0 -7 2.33301 -7 7v60c0 2 0.666992 3.66699 2 5l214 213c1.33301 1.33301 3 2 5 2h51c4.66699 0 7 -2.33301 7 -7v-52zM119.001 404.999
c0 -2 -0.667969 -3.66504 -2.00098 -4.99805l-55 -54c-3.33301 -3.33301 -6.33301 -3.33301 -9 0l-18 18c-1.33301 1.33301 -2 3 -2 5v308c0 3.33301 1.33301 5.66602 4 6.99902s5.33398 0.666016 8.00098 -2.00098l74 -75v-202zM326 301.001c-1.33301 -1.33301 -3 -2 -5 -2
h-200c-2 0 -3.66699 0.666992 -5 2l-36 36c-3.33301 2.66699 -3.33301 5.66699 0 9l36 37c1.33301 1.33301 3 2 5 2h200c2 0 3.66699 -0.666992 5 -2l36 -37c3.33301 -3.33301 3.33301 -6.33301 0 -9zM119 79.001c0 -2 -0.666016 -3.66504 -1.99902 -4.99805l-72 -72
c-2.66699 -2.66699 -5.33398 -3.33398 -8.00098 -2.00098s-4 3.66602 -4 6.99902v307c0 2 0.666992 3.66699 2 5l18 19c2.66699 2 5.66699 2 9 0l55 -55c1.33301 -1.33301 2 -3 2 -5v-199z" />
    <glyph glyph-name="l" unicode="l" horiz-adv-x="408" 
d="M63 346c-3.33301 -3.33301 -6.33398 -3.33105 -9.00098 0.00195312l-19 19c-1.33301 1.33301 -2 3 -2 5v308c0 3.33301 1.33301 5.66602 4 6.99902s5.33398 0.666016 8.00098 -2.00098l74 -75v-202c0 -2 -0.666992 -3.66699 -2 -5zM57.999 0.00195312
c-3.33301 0 -5.50195 1.33301 -6.50195 4s-0.166992 5.33398 2.5 8.00098l71 73c1.33301 1.33301 3 2 5 2h181c2 0 3.66699 -0.666992 5 -2l73 -73c2.66699 -2.66699 3.33398 -5.33398 2.00098 -8.00098s-3.66602 -4 -6.99902 -4h-326zM44.9971 20.002
c-2.66699 -2 -5.33301 -2.5 -8 -1.5s-4 3.16699 -4 6.5v290c0 2 0.666992 3.66699 2 5l19 19c2.66699 2.66699 5.66699 2.66699 9 0l54 -55c1.33301 -1.33301 2 -3 2 -5v-181c0 -2 -0.666992 -3.66699 -2 -5z" />
    <glyph glyph-name="m" unicode="m" horiz-adv-x="498" 
d="M376 75c-1.33301 1.33301 -1.99805 2.99805 -1.99805 4.99805v199c0 2 0.666992 3.66699 2 5l54 55c3.33301 2 6.66602 2 9.99902 0l19 -19c1.33301 -1.33301 2 -3 2 -5v-308c0 -3.33301 -1.33301 -5.66602 -4 -6.99902s-5.33398 -0.666016 -8.00098 2.00098z
M461.002 369.998c0 -2 -0.668945 -3.66602 -2.00195 -4.99902l-19 -19c-3.33301 -3.33301 -6.66602 -3.33301 -9.99902 0l-54 55c-1.33301 1.33301 -2 3 -2 5v181c0 1.33301 0.666992 2.66602 2 3.99902l73 73c2.66699 2.66699 5.33398 3.5 8.00098 2.5s4 -3.16699 4 -6.5
v-290zM248 328.999c-3.33301 -3.33301 -6.66699 -3.33301 -10 0l-36 36c-1.33301 1.33301 -2 3 -2 5v210c0 4.66699 2.33301 7 7 7h73c4 0 6 -2.33301 6 -7v-210c0 -0.666992 -0.166992 -1.5 -0.5 -2.5s-0.5 -1.83301 -0.5 -2.5zM367.999 599.999
c-1.33301 -1.33301 -2.99609 -2 -4.99609 -2h-235c-2 0 -3.66699 0.666992 -5 2l-73 73c-2.66699 2.66699 -3.33398 5.33398 -2.00098 8.00098s3.66602 4 6.99902 4h380c3.33301 0 5.66602 -1.33301 6.99902 -4s0.666016 -5.33398 -2.00098 -8.00098zM116.003 405.999
c0 -2 -0.667969 -3.66797 -2.00098 -5.00098l-54 -55c-3.33301 -3.33301 -6.66602 -3.33301 -9.99902 0l-18 19c-1.33301 1.33301 -2 3 -2 5v290c0 3.33301 1.16699 5.5 3.5 6.5s4.83301 0.166992 7.5 -2.5l73 -73c1.33301 -1.33301 2 -2.66602 2 -3.99902v-181z
M41.002 1.99805c-2.66699 -2.66699 -5.16602 -3.33203 -7.49902 -1.99902s-3.5 3.66602 -3.5 6.99902v308c0 2 0.666992 3.66699 2 5l18 19c3.33301 2 6.66602 2 9.99902 0l54 -55c1.33301 -1.33301 2 -3 2 -5v-199c0 -2 -0.666992 -3.66699 -2 -5z" />
    <glyph glyph-name="n" unicode="n" 
d="M390 2c-3.33301 -3.33301 -6.66602 -3.33301 -9.99902 0l-54 54c-1.33301 1.33301 -2 3 -2 5v217c0 2 0.666992 3.66699 2 5l54 55c3.33301 2 6.66602 2 9.99902 0l18 -19c1.33301 -1.33301 2 -3 2 -5v-290c0 -2 -0.666992 -3.66699 -2 -5zM390 346
c-3.33301 -3.33301 -6.66602 -3.33301 -9.99902 0l-54 55c-1.33301 1.33301 -2 3 -2 5v217c0 1.33301 0.666992 2.66602 2 3.99902l54 55c3.33301 3.33301 6.66602 3.33301 9.99902 0l18 -19c1.33301 -1.33301 2 -2.66602 2 -3.99902v-290c0 -2 -0.666992 -3.66699 -2 -5z
M312 406c0 -4.66699 -1.99902 -7.00098 -5.99902 -7.00098h-31l-142 141c-1.33301 1.33301 -2 3 -2 5v78c0 4 2.33301 6 7 6h26c1.33301 0 2.66602 -0.666992 3.99902 -2l142 -142c1.33301 -1.33301 2 -2.66602 2 -3.99902v-75zM63.001 345.999
c-3.33301 -3.33301 -6.33301 -3.33301 -9 0l-18 18c-1.33301 1.33301 -2 3 -2 5v290c0 1.33301 0.666992 2.66602 2 3.99902l18 19c2.66699 2.66699 5.66699 2.66699 9 0l55 -55c1.33301 -1.33301 2 -2.66602 2 -3.99902v-217c0 -2 -0.666992 -3.66699 -2 -5z
M63.001 1.99902c-3.33301 -3.33301 -6.33301 -3.33301 -9 0l-18 17c-1.33301 1.33301 -2 3 -2 5v290c0 2 0.666992 3.66699 2 5l18 19c2.66699 2 5.66699 2 9 0l55 -55c1.33301 -1.33301 2 -3 2 -5v-217c0 -2 -0.666992 -3.66699 -2 -5z" />
    <glyph glyph-name="o" unicode="o" 
d="M389 39c-3.33301 -3.33301 -6.33301 -3.33301 -9 0l-55 53c-1.33301 1.33301 -2 3 -2 5v182c0 2 0.666992 3.66699 2 5l55 55c2.66699 2.66699 5.66699 2.66699 9 0l19 -19c1.33301 -1.33301 2 -3 2 -5v-254c0 -2 -0.666992 -3.66699 -2 -5zM389 346
c-3.33301 -3.33301 -6.33301 -3.33301 -9 0l-55 55c-1.33301 1.33301 -2 3 -2 5v182c0 1.33301 0.666992 2.66602 2 3.99902l55 54c2.66699 3.33301 5.66699 3.33301 9 0l19 -18c1.33301 -1.33301 2 -2.66602 2 -3.99902v-254c0 -2 -0.666992 -3.66699 -2 -5zM317 600
c-1.33301 -1.33301 -3.00098 -2 -5.00098 -2h-182c-0.666992 0.666992 -1.33398 1 -2.00098 1c-1.33301 0 -2 0.333008 -2 1l-55 55c-3.33301 2.66699 -3.33301 5.66699 0 9l19 19c0.666992 0.666992 1.33398 1 2.00098 1s1.33398 0.333008 2.00098 1h254
c2 0 3.66699 -0.666992 5 -2l18 -19c2.66699 -3.33301 2.66699 -6.33301 0 -9zM62.999 346c-3.33301 -3.33301 -6.33301 -3.33301 -9 0l-19 19c-1.33301 1.33301 -2 3 -2 5v254c0 1.33301 0.666992 2.66602 2 3.99902l19 18c2.66699 2.66699 5.66699 2.66699 9 0l55 -54
c1.33301 -1.33301 2 -2.66602 2 -3.99902v-182c0 -2 -0.666992 -3.66699 -2 -5zM62.999 39c-3.33301 -3.33301 -6.33301 -3.33301 -9 0l-19 17c-1.33301 1.33301 -2 3 -2 5v254c0 2 0.666992 3.66699 2 5l19 19c2.66699 2 5.66699 2 9 0l55 -55c1.33301 -1.33301 2 -3 2 -5
v-182c0 -2 -0.666992 -3.66699 -2 -5zM352.999 2c-1.33301 -1.33301 -3.00098 -2 -5.00098 -2h-254c-0.666992 0.666992 -1.33398 1 -2.00098 1c-1.33301 0 -2 0.333008 -2 1l-19 18c-3.33301 3.33301 -3.33301 6.66602 0 9.99902l55 55
c0.666992 0.666992 1.33398 1 2.00098 1s1.33398 0.333008 2.00098 1h182c2 0 3.66699 -0.666992 5 -2l54 -55c3.33301 -3.33301 3.33301 -6.66602 0 -9.99902z" />
    <glyph glyph-name="p" unicode="p" horiz-adv-x="437" 
d="M388 346c-3.33301 -3.33301 -6.33301 -3.33301 -9 0l-55 55c-1.33301 1.33301 -2 3 -2 5v181c0 1.33301 0.666992 2.66602 2 3.99902l55 55c2.66699 3.33301 5.66699 3.33301 9 0l19 -19c1.33301 -1.33301 2 -2.66602 2 -3.99902v-254c0 -2 -0.666992 -3.66699 -2 -5z
M316 600c-1.33301 -1.33301 -2.99902 -2.00098 -4.99902 -2.00098h-182c-0.666992 0.666992 -1.33398 1 -2.00098 1c-1.33301 0 -2 0.333008 -2 1l-12 12l-31.5 29.5c-11.667 11 -21.167 21.167 -28.5 30.5c-2 2.66699 -2.5 5.33398 -1.5 8.00098s3.16699 4 6.5 4h289
c2 0 3.66699 -0.666992 5 -2l19 -19c3.33301 -2.66699 3.33301 -5.66699 0 -9zM62.001 345.999c-3.33301 -3.33301 -6.33398 -3.33398 -9.00098 -0.000976562l-19 18c-1.33301 1.33301 -2 3 -2 5v290c0 3.33301 1.33301 5.5 4 6.5s5.33398 0.166992 8.00098 -2.5l73 -72
c1.33301 -1.33301 2 -2.66602 2 -3.99902v-181c0 -2 -0.666992 -3.66699 -2 -5zM362 345.998c3.33301 -3.33301 3.33301 -6.33301 0 -9l-37 -36c-1.33301 -1.33301 -3 -2 -5 -2h-199c-2 0 -3.66699 0.666992 -5 2l-37 36c-3.33301 2.66699 -3.33301 5.66699 0 9l37 37
c1.33301 1.33301 3 2 5 2h199c2 0 3.66699 -0.666992 5 -2zM44 1.99805c-2.66699 -2.66699 -5.33301 -3.33203 -8 -1.99902s-4 3.66602 -4 6.99902v307c0 2 0.666992 3.66699 2 5l19 19c2.66699 2 5.66699 2 9 0l55 -55c1.33301 -1.33301 2 -3 2 -5v-199
c0 -2 -0.666992 -3.66699 -2 -5z" />
    <glyph glyph-name="q" unicode="q" 
d="M324 12c2.66699 -2.66699 3.33398 -5.33203 2.00098 -7.99902s-3.66602 -4 -6.99902 -4h-224c-0.666992 0.666992 -1.33398 1 -2.00098 1c-1.33301 0 -2 0.333008 -2 1l-18 18c-3.33301 3.33301 -3.33301 6.66602 0 9.99902l55 55c1.33301 1.33301 2.66602 2 3.99902 2
h115c2 0 3.66699 -0.666992 5 -2zM411 7.00195c0 -4.66699 -2.33301 -7 -7 -7h-51c-2 0 -3.66699 0.666992 -5 2l-108 108c-1.33301 1.33301 -2 3 -2 5v60c0 4.66699 2.33301 7 7 7h43c2 0 3.66699 -0.666992 5 -2l118 -119v-54zM325 161.002l0.000976562 118
c0 2 0.666992 3.66699 2 5l54 55c2.66699 2.66699 5.66699 2.66699 9 0l19 -19c1.33301 -1.33301 2 -3 2 -5v-224c0 -3.33301 -1.33301 -5.5 -4 -6.5s-5.33398 -0.166992 -8.00098 2.5zM390.001 346.002c-3.33301 -3.33301 -6.33301 -3.33301 -9 0l-54 55
c-1.33301 1.33301 -2 3 -2 5v182c0 1.33301 0.666992 2.66602 2 3.99902l54 55c2.66699 3.33301 5.66699 3.33301 9 0l19 -19c1.33301 -1.33301 2 -2.66602 2 -3.99902v-254c0 -2 -0.666992 -3.66699 -2 -5zM318.001 600.002c-1.33301 -1.33301 -3.00293 -2 -5.00293 -2
h-181c-1.33301 0 -2.66602 0.666992 -3.99902 2l-55 55c-3.33301 2.66699 -3.33301 5.66699 0 9l18 19c0.666992 0.666992 1.33398 1 2.00098 1s1.33398 0.333008 2.00098 1h254c2 0 3.66699 -0.666992 5 -2l19 -19c2.66699 -3.33301 2.66699 -6.33301 0 -9zM63.998 346.002
c-3.33301 -3.33301 -6.33301 -3.33301 -9 0l-18 19c-1.33301 1.33301 -2 3 -2 5v254c0 1.33301 0.666992 2.66602 2 3.99902l18 19c2.66699 2.66699 5.66699 2.66699 9 0l55 -55c1.33301 -1.33301 2 -2.66602 2 -3.99902v-182c0 -2 -0.666992 -3.66699 -2 -5zM63.998 39.002
c-3.33301 -3.33301 -6.33301 -3.33301 -9 0l-18 17c-1.33301 1.33301 -2 3 -2 5v254c0 2 0.666992 3.66699 2 5l18 19c2.66699 2 5.66699 2 9 0l55 -55c1.33301 -1.33301 2 -3 2 -5v-181c0 -2 -0.666992 -3.66699 -2 -5z" />
    <glyph glyph-name="r" unicode="r" 
d="M410 7c0 -4.66699 -2.33301 -7 -7 -7h-52c-2 0 -3.66699 0.666992 -5 2l-213 214c-1.33301 1.33301 -2 3 -2 5v60c0 4.66699 2.33301 7 7 7h43c2 0 3.66699 -0.666992 5 -2l222 -223c1.33301 -1.33301 2 -3 2 -5v-51zM46 2
c-2.66699 -2.66699 -5.33301 -3.33203 -8 -1.99902s-4 3.66602 -4 6.99902v308c0 2 0.666992 3.66699 2 5l18 19c2.66699 2 5.66699 2 9 0l55 -55c1.33301 -1.33301 2 -3 2 -5v-199c0 -2 -0.666992 -3.66699 -2 -5zM317.001 600.002
c-1.33301 -1.33301 -2.99902 -2.00098 -4.99902 -2.00098h-181c-1.33301 0 -2.66602 0.666992 -3.99902 2l-73 73c-2.66699 2.66699 -3.33398 5.33398 -2.00098 8.00098s3.66602 4 6.99902 4h289c2 0 3.66699 -0.666992 5 -2l19 -19c2.66699 -3.33301 2.66699 -6.33301 0 -9
zM390.002 346.001c-3.33301 -3.33301 -6.66602 -3.33301 -9.99902 0l-54 55c-1.33301 1.33301 -2 3 -2 5v181c0 1.33301 0.666992 2.66602 2 3.99902l54 55c3.33301 3.33301 6.66602 3.33301 9.99902 0l18 -18c1.33301 -1.33301 2 -2.66602 2 -3.99902v-257z
M363.002 347.001c3.33301 -3.33301 3.33301 -6.33301 0 -9l-36 -36c-1.33301 -1.33301 -3 -2 -5 -2h-200c-2 0 -3.66699 0.666992 -5 2l-36 36c-3.33301 2.66699 -3.33301 5.66699 0 9l36 36c1.33301 1.33301 3 2 5 2h200c2 0 3.66699 -0.666992 5 -2zM63.002 346.001
c-3.33301 -3.33301 -6.33398 -3.33301 -9.00098 0l-18 19c-1.33301 1.33301 -2 3 -2 5v290c0 3.33301 1.33301 5.5 4 6.5s5.33398 0.166992 8.00098 -2.5l74 -75v-183c0 -2 -0.666992 -3.66699 -2 -5z" />
    <glyph glyph-name="s" unicode="s" 
d="M333 598l-202.999 0.000976562c-0.666992 0.666992 -1.33398 1 -2.00098 1c-1.33301 0 -2 0.333008 -2 1l-55 55c-3.33301 2.66699 -3.33301 5.66699 0 9l19 18c0.666992 0.666992 1.33398 1 2.00098 1s1.33398 0.333008 2.00098 1h309
c3.33301 0 5.66602 -1.33301 6.99902 -4s0.666016 -5.33398 -2.00098 -8.00098zM63.001 346.001c-3.33301 -3.33301 -6.33301 -3.33301 -9 0l-19 19c-1.33301 1.33301 -2 3 -2 5v254c0 1.33301 0.666992 2.66602 2 3.99902l19 18c2.66699 2.66699 5.66699 2.66699 9 0
l54 -55c1.33301 -1.33301 2 -2.66602 2 -3.99902v-181c0 -2 -0.666992 -3.66699 -2 -5zM326.001 301.001c-1.33301 -1.33301 -3 -2 -5 -2h-200c-2 0 -3.66699 0.666992 -5 2l-36 37c-3.33301 2.66699 -3.33301 5.66699 0 9l36 36c1.33301 1.33301 3 2 5 2h200
c2 0 3.66699 -0.666992 5 -2l36 -36c3.33301 -3.33301 3.33301 -6.33301 0 -9zM389.001 38.001c-3.33301 -3.33301 -6.33301 -3.33301 -9 0l-55 54c-1.33301 1.33301 -2 3 -2 5v181c0 2 0.666992 3.66699 2 5l55 55c2.66699 2.66699 5.66699 2.66699 9 0l19 -18
c1.33301 -1.33301 2 -3 2 -5v-254c0 -2 -0.666992 -3.66699 -2 -5zM353.001 2.00098c-1.33301 -1.33301 -3.00195 -2.00195 -5.00195 -2.00195h-308c-3.33301 0 -5.66602 1.33301 -6.99902 4s-0.666016 5.33398 2.00098 8.00098l72 72c1.33301 1.33301 3 2 5 2l19 1h180
c2 0 3.66699 -0.666992 5 -2l55 -55c3.33301 -3.33301 3.33301 -6.66602 0 -9.99902z" />
    <glyph glyph-name="t" unicode="t" horiz-adv-x="435" 
d="M237 2c-3.33301 -3.33301 -6.33301 -3.33301 -9 0l-55 54c-1.33301 1.33301 -2 3 -2 5v217c0 2 0.666992 3.66699 2 5l55 55c2.66699 2 5.66699 2 9 0l19 -18c1.33301 -1.33301 2 -3 2 -5v-290c0 -2 -0.666992 -3.66699 -2 -5zM237 346
c-3.33301 -3.33301 -6.33301 -3.33301 -9 0l-55 55c-1.33301 1.33301 -2 3 -2 5v176c0 4.66699 2.33301 7 7 7h73c4.66699 0 7 -2.33301 7 -7v-212c0 -2 -0.666992 -3.66699 -2 -5zM414 664c2.66699 -3.33301 2.66699 -6.33301 0 -9l-54 -55c-1.33301 -1.33301 -3 -2 -5 -2
h-280c-2 0 -3.66699 0.666992 -5 2l-54 55c-3.33301 2.66699 -3.33301 5.66699 0 9l17 18c1.33301 1.33301 3 2 5 2h356z" />
    <glyph glyph-name="u" unicode="u" 
d="M57 0c-3.33301 0 -5.66992 1.33301 -7.00293 4s-0.666016 5.33398 2.00098 8.00098l72 72c1.33301 1.33301 3 2 5 2h181c2 0 3.66699 -0.666992 5 -2l72 -72c2.66699 -2.66699 3.33398 -5.33398 2.00098 -8.00098s-3.66602 -4 -6.99902 -4h-325zM407.996 25
c0 -3.33301 -1.33203 -5.5 -3.99902 -6.5s-5.33398 -0.5 -8.00098 1.5l-73 72c-1.33301 1.33301 -2 3 -2 5v181c0 2 0.666992 3.66699 2 5l55 55c2.66699 2.66699 5.66699 2.66699 9 0l19 -18c1.33301 -1.33301 2 -3 2 -5v-290zM386.997 346
c-3.33301 -3.33301 -6.33398 -3.33496 -9.00098 -0.00195312l-55 55c-1.33301 1.33301 -2 3 -2 5v199c0 2 0.666992 3.66699 2 5l73 72c2.66699 2.66699 5.33398 3.33398 8.00098 2.00098s4 -3.66602 4 -6.99902v-307c0 -2 -0.666992 -3.66699 -2 -5zM60.9961 345.998
c-3.33301 -3.33301 -6.33398 -3.33105 -9.00098 0.00195312l-19 19c-1.33301 1.33301 -2 3 -2 5v307c0 3.33301 1.33301 5.66602 4 6.99902s5.33398 0.666016 8.00098 -2.00098l73 -72c1.33301 -1.33301 2 -3 2 -5v-199c0 -2 -0.666992 -3.66699 -2 -5zM117.995 97
c0 -2 -0.666016 -3.66699 -1.99902 -5l-73 -72c-2.66699 -2 -5.33398 -2.5 -8.00098 -1.5s-4 3.16699 -4 6.5v290c0 2 0.666992 3.66699 2 5l19 18c2.66699 2 5.66699 2 9 0l55 -55c1.33301 -1.33301 2 -3 2 -5v-181z" />
    <glyph glyph-name="v" unicode="v" horiz-adv-x="439" 
d="M403 314c0 -2.66699 -0.333008 -4.33203 -1 -4.99902l-72.5 -152l-70.5 -153c-1.33301 -2.66699 -3.33301 -4 -6 -4h-22c-4.66699 0 -7 2.33301 -7 7v123c0 1.33301 1.66699 6.16602 5 14.499s7.83301 18.5 13.5 30.5l18.5 39.5l20 41.5l27 57c0 2.66699 1.33301 4 4 4
l73 26c4.66699 1.33301 7.66699 0 9 -4zM387 346.002c-3.33301 -3.33301 -6.33398 -3.33496 -9.00098 -0.00195312l-55 55c-1.33301 1.33301 -2 3 -2 5v202l74 75c2.66699 2.66699 5.33398 3.33398 8.00098 2.00098s4 -3.66602 4 -6.99902v-311zM59.999 346
c-3.33301 -3.33301 -6.33398 -3.33105 -9.00098 0.00195312l-18 19c-1.33301 1.33301 -2 3 -2 5v308c0 3.33301 1.33301 5.66602 4 6.99902s5.33398 0.666016 8.00098 -2.00098l74 -75v-202c0 -2 -0.666992 -3.66699 -2 -5zM213.998 7.00195
c0 -4.66699 -2.33398 -6.99902 -7.00098 -6.99902h-22c-2.66699 0 -4.66699 1.33301 -6 4l-142 305c0 0.666992 -0.166992 1.5 -0.5 2.5s-0.5 1.83301 -0.5 2.5l9 25c1.33301 4 4.33301 5.33301 9 4l74 -27l29 -60l19 -40.5l18.5 -40
c5.66699 -12.333 10.334 -22.833 14.001 -31.5s5.5 -13.334 5.5 -14.001v-123z" />
    <glyph glyph-name="w" unicode="w" horiz-adv-x="498" 
d="M441 346c-3.33301 -3.33301 -6.66797 -3.33496 -10.001 -0.00195312l-54 55c-1.33301 1.33301 -2 3 -2 5v199c0 2 0.666992 3.66699 2 5l73 73c2.66699 2.66699 5.33398 3.33398 8.00098 2.00098s4 -3.66602 4 -6.99902v-308c0 -2 -0.666992 -3.66699 -2 -5z
M461.998 24.998c0 -3.33301 -1.33105 -5.5 -3.99805 -6.5s-5.33398 -0.5 -8.00098 1.5l-73 73c-1.33301 1.33301 -2 3 -2 5v181c0 2 0.666992 3.66699 2 5l54 55c3.33301 2 6.66602 2 9.99902 0l19 -19c1.33301 -1.33301 2 -3 2 -5v-290zM56 -0.00195312
c-3.33301 0 -5.66992 1.33301 -7.00293 4s-0.666016 5.33398 2.00098 8.00098l73 73c1.33301 1.33301 3 2 5 2h235c2 0 3.66699 -0.666992 5 -2l72 -73c2.66699 -2.66699 3.33398 -5.33398 2.00098 -8.00098s-3.66602 -4 -6.99902 -4h-380zM212.996 97.998
c-4.66699 0 -7 2.33301 -7 7v210c0 2 0.666992 3.66699 2 5l36 36c2.66699 2.66699 5.66699 2.66699 9 0l36 -36c1.33301 -1.33301 2 -3 2 -5v-210c0 -4.66699 -2 -7 -6 -7h-72zM60.9961 345.998c-3.33301 -3.33301 -6.66699 -3.33105 -10 0.00195312l-18 19
c-1.33301 1.33301 -2 3 -2 5v308c0 3.33301 1.16699 5.66602 3.5 6.99902s4.83301 0.666016 7.5 -2.00098l73 -73c1.33301 -1.33301 2 -3 2 -5v-199c0 -2 -0.666992 -3.66699 -2 -5zM116.995 98c0 -2 -0.666016 -3.66699 -1.99902 -5l-73 -73
c-2.66699 -2 -5.16699 -2.5 -7.5 -1.5s-3.5 3.16699 -3.5 6.5v290c0 2 0.666992 3.66699 2 5l18 19c3.33301 2 6.66602 2 9.99902 0l54 -55c1.33301 -1.33301 2 -3 2 -5v-181z" />
    <glyph glyph-name="x" unicode="x" horiz-adv-x="416" 
d="M390 29l-11 -24c-2 -3.33301 -4 -5 -6 -5h-59c-2.66699 -0 -4.66699 1.33301 -6 4s-4.5 10 -9.5 22l-18.5 43.5l-23 54l-22 53l-16.5 40.5l-6.5 16v98c0 4.66699 2.33301 7 7 7h38c2.66699 0 4.66699 -1.33301 6 -4zM202 233l-6.50098 -16l-16.5 -40.5l-22 -53l-23 -54
l-18.5 -43.5c-5 -12 -8.16699 -19.333 -9.5 -22s-3.33301 -4 -6 -4h-58c-3.33301 0 -5.66602 1.66699 -6.99902 5l-11 24l128 305c1.33301 2.66699 3.33301 4 6 4h37c4.66699 0 7 -2.33301 7 -7v-98zM201.999 354c0 -4.66699 -2.33203 -7 -6.99902 -7h-37
c-2.66699 0 -4.66699 1.33301 -6 4l-128 304l11 24c1.33301 3.33301 3.66602 5 6.99902 5h58c2.66699 0 4.66699 -1.33301 6 -4s4.5 -10.167 9.5 -22.5l18.5 -44l23 -54l22 -53l16.5 -40.5l6.5 -16v-96zM390 655l-127 -304c-1.33301 -2.66699 -3.33301 -4 -6 -4h-38
c-4.66699 0 -7 2.33301 -7 7v96l6.5 16l16.5 40.5l22 53l23 54l18.5 44c5 12.333 8.16699 19.833 9.5 22.5s3.33301 4 6 4h59c2 0 3.66699 -1.33301 5 -4z" />
    <glyph glyph-name="y" unicode="y" 
d="M388 346c-3.33301 -3.33301 -6.33398 -3.33496 -9.00098 -0.00195312l-55 55c-1.33301 1.33301 -2 3 -2 5v198c0 2 0.666992 3.66699 2 5l73 73c2.66699 2.66699 5.33398 3.33398 8.00098 2.00098s4 -3.66602 4 -6.99902v-308c0 -2 -0.666992 -3.66699 -2 -5z
M387.999 37.998c-3.33301 -3.33301 -6.33301 -3.33301 -9 0l-55 54c-1.33301 1.33301 -2 3 -2 5v181c0 2 0.666992 3.66699 2 5l55 55c2.66699 2.66699 5.66699 2.66699 9 0l19 -19c1.33301 -1.33301 2 -3 2 -5v-253c0 -2 -0.666992 -3.66699 -2 -5zM351.999 1.99805
c-1.33301 -1.33301 -3.00195 -2.00195 -5.00195 -2.00195h-308c-3.33301 0 -5.66602 1.33301 -6.99902 4s-0.666016 5.33398 2.00098 8.00098l75 74h202c2 0 3.66699 -0.666992 5 -2l55 -55c3.33301 -3.33301 3.33301 -6.66602 0 -9.99902zM324.997 300.996
c-1.33301 -1.33301 -3 -2 -5 -2h-200c-2 0 -3.66699 0.666992 -5 2l-36 36c-3.33301 2.66699 -3.33301 5.66699 0 9l36 37c1.33301 1.33301 3 2 5 2h200c2 0 3.66699 -0.666992 5 -2l36 -37c3.33301 -3.33301 3.33301 -6.33301 0 -9zM60.9971 345.996
c-3.33301 -3.33301 -6.33398 -3.33105 -9.00098 0.00195312l-18 18c-1.33301 1.33301 -2 3 -2 5v308c0 3.33301 1.33301 5.66602 4 6.99902s5.33398 0.666016 8.00098 -2.00098l74 -75v-201c0 -2 -0.666992 -3.66699 -2 -5z" />
    <glyph glyph-name="z" unicode="z" horiz-adv-x="422" 
d="M390 29c3.33301 -3.33301 3.33301 -6.66699 0 -10l-18 -17c-1.33301 -1.33301 -3 -2 -5 -2h-311c-2 0 -3.66699 0.666992 -5 2l-29 29c-2 2 -2.33301 4.66699 -1 8l20 43c1.33301 2.66699 3.33301 4 6 4h284c2 0 3.66699 -0.666992 5 -2zM229 293.999v-6l-86 -188
c-1.33301 -2.66699 -3.33301 -4 -6 -4h-80c-5.33301 0 -7.33301 3.33301 -6 10l97 211l34 21h24c2.66699 0 4.66699 -1.33301 6 -4zM337 521.999l-33.501 -73.499c-11.667 -25.667 -22.167 -46.834 -31.5 -63.501v1c-2 -2.66699 -7.16699 -7 -15.5 -13l-23.5 -17l-12 -10
h-33c-3.33301 0 -5.66602 1.66699 -6.99902 5l-9 21l97 212c1.33301 2.66699 3.33301 4 6 4h80c6.66699 0 8.66699 -3.33301 6 -10zM371.999 602c-1.33301 -2.66699 -3.33301 -4 -6 -4h-284c-2 0 -3.66699 0.666992 -5 2l-55 55c-3.33301 2.66699 -3.33301 5.66699 0 9
l19 18c1.33301 1.33301 3 2 5 2h309c2 0 3.66699 -0.666992 5 -2l30 -30c2 -2 2.33301 -4.66699 1 -8z" />
  </font>
</defs>
</svg>
